<?xml version="1.0" encoding="UTF-8"?>
<svg version="1.1" xmlns="http://www.w3.org/2000/svg" width="500" height="500">
<path d="M0 0 C165 0 330 0 500 0 C500 165 500 330 500 500 C335 500 170 500 0 500 C0 335 0 170 0 0 Z " fill="#010A19" transform="translate(0,0)"/>
<path d="M0 0 C31.21721392 24.14083132 52.7489168 57.36151069 58.16015625 96.8515625 C60.80923524 118.09257939 59.23533524 138.04523588 53.41015625 158.6640625 C53.17039062 159.63730469 52.930625 160.61054688 52.68359375 161.61328125 C44.06261675 193.72037785 18.37455273 224.29716281 -9.98486328 241.08154297 C-34.29001258 254.95621784 -58.00097502 262.00595385 -85.96484375 262.0390625 C-87.0353447 262.04218948 -87.0353447 262.04218948 -88.12747192 262.04537964 C-100.92917791 262.0411428 -113.80528323 261.30951353 -126.08984375 257.4140625 C-126.79359131 257.19717773 -127.49733887 256.98029297 -128.22241211 256.75683594 C-148.20957874 250.45100035 -168.71581453 240.76307704 -183.58984375 225.6640625 C-184.57984375 225.0040625 -185.56984375 224.3440625 -186.58984375 223.6640625 C-186.58984375 223.0040625 -186.58984375 222.3440625 -186.58984375 221.6640625 C-187.15316406 221.43332031 -187.71648437 221.20257813 -188.296875 220.96484375 C-204.29248861 211.89067112 -214.59770093 188.61574902 -221.90234375 172.4765625 C-222.2279126 171.7647583 -222.55348145 171.0529541 -222.88891602 170.31958008 C-236.74945647 138.79738916 -236.25424037 98.76314166 -224.27734375 66.79296875 C-216.82440462 48.09470461 -206.21039828 31.43628178 -192.58984375 16.6640625 C-191.57664062 15.54451172 -191.57664062 15.54451172 -190.54296875 14.40234375 C-168.19867034 -9.13556035 -138.32870586 -21.86285812 -106.86108398 -26.96020508 C-105.11893477 -27.2484097 -103.38361366 -27.57814594 -101.65234375 -27.92578125 C-66.05974541 -32.6926471 -28.4637362 -21.43291852 0 0 Z " fill="#030D1D" transform="translate(336.58984375,102.3359375)"/>
<path d="M0 0 C31.21721392 24.14083132 52.7489168 57.36151069 58.16015625 96.8515625 C60.80923524 118.09257939 59.23533524 138.04523588 53.41015625 158.6640625 C53.17039062 159.63730469 52.930625 160.61054688 52.68359375 161.61328125 C44.06261675 193.72037785 18.37455273 224.29716281 -9.98486328 241.08154297 C-34.29001258 254.95621784 -58.00097502 262.00595385 -85.96484375 262.0390625 C-87.0353447 262.04218948 -87.0353447 262.04218948 -88.12747192 262.04537964 C-100.92917791 262.0411428 -113.80528323 261.30951353 -126.08984375 257.4140625 C-126.79359131 257.19717773 -127.49733887 256.98029297 -128.22241211 256.75683594 C-148.20957874 250.45100035 -168.71581453 240.76307704 -183.58984375 225.6640625 C-184.57984375 225.0040625 -185.56984375 224.3440625 -186.58984375 223.6640625 C-186.58984375 223.0040625 -186.58984375 222.3440625 -186.58984375 221.6640625 C-187.15316406 221.43332031 -187.71648437 221.20257813 -188.296875 220.96484375 C-204.29248861 211.89067112 -214.59770093 188.61574902 -221.90234375 172.4765625 C-222.2279126 171.7647583 -222.55348145 171.0529541 -222.88891602 170.31958008 C-236.74945647 138.79738916 -236.25424037 98.76314166 -224.27734375 66.79296875 C-216.82440462 48.09470461 -206.21039828 31.43628178 -192.58984375 16.6640625 C-191.57664062 15.54451172 -191.57664062 15.54451172 -190.54296875 14.40234375 C-168.19867034 -9.13556035 -138.32870586 -21.86285812 -106.86108398 -26.96020508 C-105.11893477 -27.2484097 -103.38361366 -27.57814594 -101.65234375 -27.92578125 C-66.05974541 -32.6926471 -28.4637362 -21.43291852 0 0 Z M-168.58984375 7.6640625 C-169.37101562 8.24285156 -170.1521875 8.82164063 -170.95703125 9.41796875 C-197.6094233 29.81173199 -215.24940052 58.82849213 -221.58984375 91.6640625 C-221.81671875 92.81777344 -222.04359375 93.97148437 -222.27734375 95.16015625 C-228.00507469 130.20273233 -220.03741757 165.49571765 -199.85546875 194.65625 C-193.30119833 203.35760901 -186.01256832 212.70991554 -177.58984375 219.6640625 C-176.92984375 219.6640625 -176.26984375 219.6640625 -175.58984375 219.6640625 C-175.58984375 220.3240625 -175.58984375 220.9840625 -175.58984375 221.6640625 C-173.58307943 223.30485156 -171.5852981 224.80705444 -169.46484375 226.2890625 C-168.83102783 226.73419189 -168.19721191 227.17932129 -167.54418945 227.63793945 C-142.87939554 244.70652597 -116.23020217 253.10817582 -86.21484375 252.9765625 C-85.20170105 252.97332977 -85.20170105 252.97332977 -84.16809082 252.97003174 C-73.68668515 252.91655202 -63.74175 252.41858996 -53.58984375 249.6640625 C-52.45530762 249.36604736 -52.45530762 249.36604736 -51.29785156 249.06201172 C-39.88900378 245.98756445 -29.76111712 241.65431916 -19.58984375 235.6640625 C-19.58984375 235.0040625 -19.58984375 234.3440625 -19.58984375 233.6640625 C-22.48461929 231.25174955 -24.44077806 229.69078496 -28.27734375 229.6015625 C-32.28953337 230.88849125 -35.99819145 232.61672022 -39.8125 234.3984375 C-48.3814391 238.30327051 -57.36115619 240.02384608 -66.58984375 241.6640625 C-67.62496094 241.85097656 -68.66007813 242.03789062 -69.7265625 242.23046875 C-87.09738789 244.18007605 -104.75046496 243.36492159 -121.58984375 238.6640625 C-122.75265869 238.34260254 -122.75265869 238.34260254 -123.93896484 238.01464844 C-143.23089729 232.50724865 -162.71532396 222.41015654 -176.58984375 207.6640625 C-177.35683594 206.87128906 -178.12382812 206.07851563 -178.9140625 205.26171875 C-195.39102675 187.58642983 -207.64784187 166.7513869 -211.58984375 142.6640625 C-211.81027344 141.46265625 -212.03070313 140.26125 -212.2578125 139.0234375 C-217.43614305 106.91083732 -210.38742962 74.94765467 -192.27734375 47.9765625 C-172.45029452 20.57057296 -146.62960794 2.45576951 -113.58984375 -5.3359375 C-112.87248047 -5.52430176 -112.15511719 -5.71266602 -111.41601562 -5.90673828 C-103.98758429 -7.6729497 -96.55627341 -7.63963381 -88.96826172 -7.59667969 C-86.7259598 -7.58599049 -84.48446467 -7.59660968 -82.2421875 -7.609375 C-69.27239656 -7.62280592 -57.77390155 -5.84670207 -45.58984375 -1.3359375 C-44.77 -1.03816406 -43.95015625 -0.74039063 -43.10546875 -0.43359375 C-25.65139837 6.21150167 -11.05171023 15.77552934 2.41015625 28.6640625 C3.15652344 29.34726563 3.90289062 30.03046875 4.671875 30.734375 C11.29082527 36.99523198 16.36512457 44.12815944 21.41015625 51.6640625 C21.97734375 52.49679688 22.54453125 53.32953125 23.12890625 54.1875 C39.63667513 79.91503341 43.06112429 111.05886207 38.41015625 140.6640625 C38.2503125 141.85128906 38.09046875 143.03851563 37.92578125 144.26171875 C33.872383 169.43113087 19.16778908 190.21283911 2.41015625 208.6640625 C2.56871094 207.560625 2.72726562 206.4571875 2.890625 205.3203125 C4.71491083 190.57049169 3.70879205 176.8303571 -0.58984375 162.6640625 C-0.92533884 161.34462271 -1.25211428 160.02293632 -1.5703125 158.69921875 C-3.3972515 151.16775593 -5.71997246 144.40461701 -9.58984375 137.6640625 C-5.01667302 138.15186738 -5.01667302 138.15186738 -3.18359375 140.3515625 C5.19184524 158.0596335 7.64776944 176.3034501 8.41015625 195.6640625 C21.52845495 183.25921513 29.00881817 164.88226008 33.41015625 147.6640625 C33.70921875 146.50261719 34.00828125 145.34117187 34.31640625 144.14453125 C41.048569 113.88096632 34.77775515 80.8766045 18.41015625 54.6640625 C13.06526362 46.77534397 6.98231359 39.55493651 0.41015625 32.6640625 C-0.10200439 32.12273682 -0.61416504 31.58141113 -1.1418457 31.02368164 C-5.2870992 26.74351824 -9.64687066 23.13691059 -14.52734375 19.7265625 C-15.26315674 19.21150146 -15.99896973 18.69644043 -16.75708008 18.16577148 C-28.22895856 10.31568866 -40.40631354 4.96956984 -53.58984375 0.6640625 C-54.46382812 0.33148438 -55.3378125 -0.00109375 -56.23828125 -0.34375 C-76.28891933 -6.27948668 -99.64735128 -5.12136759 -119.58984375 0.6640625 C-120.5653418 0.92896484 -120.5653418 0.92896484 -121.56054688 1.19921875 C-141.86389015 6.77592545 -158.40348164 18.38355357 -173.58984375 32.6640625 C-174.18023437 33.19 -174.770625 33.7159375 -175.37890625 34.2578125 C-196.96167109 54.30625756 -208.62655 85.02812674 -209.87109375 114.015625 C-210.71554372 147.74325309 -199.62559588 178.32507267 -176.32666016 202.90039062 C-161.53043696 217.92539996 -142.20656897 230.52583841 -121.58984375 235.6640625 C-120.26984375 235.6640625 -118.94984375 235.6640625 -117.58984375 235.6640625 C-117.5640625 235.035 -117.53828125 234.4059375 -117.51171875 233.7578125 C-117.06078473 226.95280825 -115.92323694 221.17197889 -111.09765625 216.09375 C-108.68230098 213.99082875 -106.63794282 212.68009552 -103.58984375 211.6640625 C-103.58984375 213.3140625 -103.58984375 214.9640625 -103.58984375 216.6640625 C-104.16734375 216.7259375 -104.74484375 216.7878125 -105.33984375 216.8515625 C-108.84296601 218.11657887 -109.78205727 219.37130855 -111.58984375 222.6640625 C-112.09382327 227.77979979 -112.22396973 232.76168456 -110.58984375 237.6640625 C-104.12190242 239.17639951 -98.23394333 239.87838829 -91.58984375 239.6640625 C-92.24495845 236.64780521 -93.26238644 234.07086643 -94.58984375 231.2890625 C-96.2054773 227.74754692 -97.18935524 224.56882549 -97.58984375 220.6640625 C-96.26984375 220.6640625 -94.94984375 220.6640625 -93.58984375 220.6640625 C-93.54859375 221.6128125 -93.50734375 222.5615625 -93.46484375 223.5390625 C-92.63932073 229.56414844 -88.83631947 235.41758678 -84.58984375 239.6640625 C-82.37911398 239.90660063 -82.37911398 239.90660063 -79.96484375 239.7890625 C-79.14757812 239.77101563 -78.3303125 239.75296875 -77.48828125 239.734375 C-76.86179687 239.71117187 -76.2353125 239.68796875 -75.58984375 239.6640625 C-76.20670873 234.76061538 -77.1415385 230.12674541 -78.46484375 225.3515625 C-78.79226563 224.13855469 -79.1196875 222.92554688 -79.45703125 221.67578125 C-80.35518489 218.39908703 -80.35518489 218.39908703 -83.58984375 216.6640625 C-88.74440092 216.40633464 -93.50987547 216.81740112 -98.58984375 217.6640625 C-98.58984375 216.3440625 -98.58984375 215.0240625 -98.58984375 213.6640625 C-95.58205854 212.66146743 -93.05163728 212.36091608 -89.90234375 212.1015625 C-88.90847656 212.01777344 -87.91460937 211.93398438 -86.890625 211.84765625 C-86.13136719 211.78707031 -85.37210938 211.72648438 -84.58984375 211.6640625 C-85.24569564 208.05413871 -85.24569564 208.05413871 -86.58984375 204.6640625 C-87.24984375 204.6640625 -87.90984375 204.6640625 -88.58984375 204.6640625 C-88.67234375 204.1484375 -88.75484375 203.6328125 -88.83984375 203.1015625 C-89.911246 199.61950518 -91.7250798 196.79205365 -93.58984375 193.6640625 C-92.99558594 194.20933594 -92.40132812 194.75460937 -91.7890625 195.31640625 C-83.93574881 202.46133395 -75.98193945 209.4045696 -67.21484375 215.4140625 C-59.5621291 220.66544989 -55.02410271 226.16018317 -51.58984375 234.6640625 C-50.82671875 234.3546875 -50.06359375 234.0453125 -49.27734375 233.7265625 C-46.39134806 232.58558746 -43.78843238 231.69428251 -40.71484375 231.2265625 C-37.76351732 230.69532374 -35.32360654 229.87013432 -32.58984375 228.6640625 C-33.82513701 224.94171214 -35.888601 223.64793609 -39.28759766 221.87353516 C-40.24158447 221.39859619 -40.24158447 221.39859619 -41.21484375 220.9140625 C-41.87274902 220.57552246 -42.5306543 220.23698242 -43.20849609 219.88818359 C-45.32966305 218.80131707 -47.45921555 217.73224549 -49.58984375 216.6640625 C-51.04844912 215.92240977 -52.50678352 215.18022388 -53.96484375 214.4375 C-62.14175537 210.25451651 -62.14175537 210.25451651 -70.58984375 206.6640625 C-70.58984375 206.0040625 -70.58984375 205.3440625 -70.58984375 204.6640625 C-72.04310906 203.23408358 -72.04310906 203.23408358 -73.96484375 201.7265625 C-91.26654923 186.90089614 -104.7316669 165.3744467 -106.79785156 142.34570312 C-107.82111838 127.83703736 -105.7118087 115.49710095 -96.58984375 103.6640625 C-92.91079174 99.89025749 -89.72531244 98.3866679 -84.4453125 98.1328125 C-82.55596925 98.12718502 -80.66651738 98.13812859 -78.77734375 98.1640625 C-70.72972695 98.02791985 -64.14097789 97.85374695 -57.58984375 92.6640625 C-56.94273437 92.15746094 -56.295625 91.65085937 -55.62890625 91.12890625 C-46.9366351 83.37187946 -43.56371367 71.90450029 -42.234375 60.65625 C-41.86408438 52.99023333 -43.60856337 46.26962347 -47.58984375 39.6640625 C-50.72687345 38.24474862 -50.72687345 38.24474862 -54.171875 40.24609375 C-55.58719052 40.97971449 -56.99718839 41.72366421 -58.40234375 42.4765625 C-63.06330386 44.93806493 -67.50932613 47.15665617 -72.58984375 48.6640625 C-72.42484375 49.7778125 -72.25984375 50.8915625 -72.08984375 52.0390625 C-70.87913834 62.32102337 -71.30220669 70.97671346 -77.0625 79.9609375 C-81.33528941 85.33475302 -86.29883597 88.10894549 -92.58984375 90.6640625 C-93.34523437 90.98375 -94.100625 91.3034375 -94.87890625 91.6328125 C-101.85863179 94.29645334 -108.96280562 95.11542678 -115.96484375 92.1015625 C-120.11002313 89.76518867 -121.61851752 86.92212715 -123.58984375 82.6640625 C-123.91984375 82.0040625 -124.24984375 81.3440625 -124.58984375 80.6640625 C-124.66077217 78.4567702 -124.673994 76.24738798 -124.65234375 74.0390625 C-124.64332031 72.85054688 -124.63429688 71.66203125 -124.625 70.4375 C-124.61339844 69.52226562 -124.60179687 68.60703125 -124.58984375 67.6640625 C-124.2753125 68.32792969 -123.96078125 68.99179688 -123.63671875 69.67578125 C-119.7881564 77.61633911 -116.71268792 82.88118767 -108.5078125 86.7109375 C-101.95888053 88.85007994 -94.60085513 88.92390851 -88.21484375 86.1640625 C-81.40434558 82.05477457 -76.89945308 75.78797266 -74.2421875 68.375 C-72.38798973 60.66953142 -73.28695185 53.14846117 -75.58984375 45.6640625 C-74.43484375 45.4990625 -73.27984375 45.3340625 -72.08984375 45.1640625 C-62.07270024 42.90623015 -51.24581679 37.8076011 -44.75390625 29.71875 C-43.29126066 27.13703329 -42.44856996 24.49705645 -41.58984375 21.6640625 C-44.17344348 22.26710651 -46.75671975 22.87148661 -49.33984375 23.4765625 C-50.05011719 23.64220703 -50.76039063 23.80785156 -51.4921875 23.97851562 C-55.79584203 24.98777974 -60.08612746 26.03898268 -64.37109375 27.125 C-68.53019063 28.1707139 -72.69664862 29.144967 -76.88671875 30.05859375 C-109.88089636 37.19679709 -109.88089636 37.19679709 -134.40234375 59.1015625 C-134.92441406 59.94589844 -135.44648438 60.79023438 -135.984375 61.66015625 C-137.84738484 63.9855189 -138.76161726 64.10612295 -141.58984375 64.6640625 C-144.09603403 38.66723915 -144.09603403 38.66723915 -137.6484375 29.98828125 C-136.96910156 29.22128906 -136.28976563 28.45429688 -135.58984375 27.6640625 C-134.92082031 26.84550781 -134.25179687 26.02695313 -133.5625 25.18359375 C-131.95933063 23.2788056 -130.32040158 21.45248092 -128.58984375 19.6640625 C-129.06035156 20.44910156 -129.53085938 21.23414063 -130.015625 22.04296875 C-131.90581449 25.23241892 -133.75307997 28.44360334 -135.58984375 31.6640625 C-136.22921875 32.7778125 -136.86859375 33.8915625 -137.52734375 35.0390625 C-139.21502713 40.79704108 -139.16590078 46.70897948 -138.58984375 52.6640625 C-137.59984375 54.1490625 -137.59984375 54.1490625 -136.58984375 55.6640625 C-135.58391132 54.5443639 -134.58525885 53.4181213 -133.58984375 52.2890625 C-133.03296875 51.66257812 -132.47609375 51.03609375 -131.90234375 50.390625 C-130.38811888 48.76016417 -130.38811888 48.76016417 -130.58984375 46.6640625 C-129.75453125 46.2928125 -129.75453125 46.2928125 -128.90234375 45.9140625 C-126.49988586 44.71633908 -126.49988586 44.71633908 -124.37109375 42.796875 C-108.74145569 30.81122559 -85.46135362 28.11174219 -66.58984375 24.6640625 C-66.58984375 24.0040625 -66.58984375 23.3440625 -66.58984375 22.6640625 C-69.22984375 22.3340625 -71.86984375 22.0040625 -74.58984375 21.6640625 C-74.58984375 21.0040625 -74.58984375 20.3440625 -74.58984375 19.6640625 C-73.17445313 20.02371094 -73.17445313 20.02371094 -71.73046875 20.390625 C-63.01808785 22.40252019 -56.38868243 22.90759109 -47.58984375 20.6640625 C-46.46449219 20.3959375 -45.33914063 20.1278125 -44.1796875 19.8515625 C-41.30732493 19.15278892 -38.4465699 18.42383009 -35.58984375 17.6640625 C-36.52331733 19.41621356 -37.46179695 21.16569813 -38.40234375 22.9140625 C-39.18544922 24.37585938 -39.18544922 24.37585938 -39.984375 25.8671875 C-41.58984375 28.6640625 -41.58984375 28.6640625 -43.29296875 30.8828125 C-44.82084811 32.60025759 -44.82084811 32.60025759 -44.52734375 34.9140625 C-43.73887665 37.22689933 -42.86073217 39.08963544 -41.71484375 41.2265625 C-36.7053135 51.08285847 -35.90504606 62.01093244 -34.85522461 72.859375 C-33.18959982 88.28303546 -26.1421013 99.5238576 -15.15625 110.12109375 C-10.69524247 114.54136149 -7.63804003 118.35349308 -6.58984375 124.6640625 C-7.42515625 123.6121875 -7.42515625 123.6121875 -8.27734375 122.5390625 C-15.39023233 113.59241728 -15.39023233 113.59241728 -23.58984375 105.6640625 C-24.24984375 105.6640625 -24.90984375 105.6640625 -25.58984375 105.6640625 C-25.85925781 105.09429687 -26.12867188 104.52453125 -26.40625 103.9375 C-27.63097136 101.58506491 -29.02245337 99.47172793 -30.52734375 97.2890625 C-34.34423051 91.6055231 -36.87284139 86.26791773 -38.58984375 79.6640625 C-39.24984375 79.6640625 -39.90984375 79.6640625 -40.58984375 79.6640625 C-40.85796875 80.30472656 -41.12609375 80.94539063 -41.40234375 81.60546875 C-46.07039561 91.9089648 -53.12522386 97.5648183 -63.58984375 101.6640625 C-65.89416446 102.33849783 -68.20742252 102.98291684 -70.52734375 103.6015625 C-80.46391929 106.29878713 -89.60753332 110.90149388 -96.58984375 118.6640625 C-96.58984375 119.3240625 -96.58984375 119.9840625 -96.58984375 120.6640625 C-95.97109375 121.2415625 -95.35234375 121.8190625 -94.71484375 122.4140625 C-92.24876942 125.02520003 -91.52526814 127.23417305 -90.58984375 130.6640625 C-92.96484375 130.0390625 -92.96484375 130.0390625 -95.58984375 128.6640625 C-96.90234375 125.5390625 -96.90234375 125.5390625 -97.58984375 122.6640625 C-102.34348765 129.79452835 -101.18788633 139.24521322 -100.26953125 147.56640625 C-97.10454433 161.67511556 -87.79501431 175.75995106 -78.58984375 186.6640625 C-77.7596875 187.65664063 -76.92953125 188.64921875 -76.07421875 189.671875 C-67.08118346 200.09607431 -55.14288011 211.36991203 -41.96484375 215.9140625 C-30.25767865 220.00117931 -20.16062287 229.01367862 -11.58984375 237.6640625 C-11.19404636 229.61618225 -11.63373586 221.35919736 -16.83984375 214.8515625 C-18.32243271 213.67223037 -19.80570803 212.49374757 -21.29296875 211.3203125 C-29.00787663 205.01421389 -33.0655692 197.74426499 -34.21484375 187.7890625 C-34.34638598 186.41467295 -34.47366731 185.03983611 -34.58984375 183.6640625 C-26.47272657 185.84182565 -21.32365694 189.99690116 -16.87109375 197.0546875 C-14.98873579 200.88827018 -14.08080026 204.79494884 -13.23046875 208.96484375 C-12.72422538 211.61273812 -12.72422538 211.61273812 -11.55078125 213.59765625 C-10.19498983 216.51315895 -10.15654289 219.21907684 -9.96484375 222.4140625 C-9.85269531 224.16976562 -9.85269531 224.16976562 -9.73828125 225.9609375 C-9.68929687 226.85296875 -9.6403125 227.745 -9.58984375 228.6640625 C-4.69540033 227.14032068 -1.48509497 224.30108988 2.28515625 220.9765625 C3.16494141 220.21956055 3.16494141 220.21956055 4.0625 219.44726562 C19.56893365 205.96859638 30.6281619 190.17114221 39.41015625 171.6640625 C39.93351562 170.57351563 40.456875 169.48296875 40.99609375 168.359375 C54.12297041 139.00290537 54.12396146 101.21092156 43.03515625 71.3515625 C41.88726704 68.42748175 40.67334545 65.54001618 39.41015625 62.6640625 C38.93707031 61.57222656 38.46398437 60.48039062 37.9765625 59.35546875 C21.46085266 24.12507354 -9.21907485 -0.43389624 -45.24707031 -13.52832031 C-86.22926416 -27.6559878 -134.43099074 -18.57993432 -168.58984375 7.6640625 Z " fill="#192D43" transform="translate(336.58984375,102.3359375)"/>
<path d="M0 0 C1.0859697 -0.00006042 1.0859697 -0.00006042 2.19387817 -0.00012207 C15.61652839 0.04327566 27.74300618 1.7609012 40.375 6.4375 C41.19484375 6.73527344 42.0146875 7.03304687 42.859375 7.33984375 C60.30645411 13.98227746 74.92549812 23.5446828 88.375 36.4375 C89.19484375 37.19417969 90.0146875 37.95085937 90.859375 38.73046875 C97.75623761 45.29533953 103.120959 52.55046528 108.375 60.4375 C108.94089844 61.26894531 109.50679687 62.10039062 110.08984375 62.95703125 C126.60787062 88.67608104 130.02526706 119.83676158 125.375 149.4375 C125.21515625 150.62472656 125.0553125 151.81195313 124.890625 153.03515625 C120.82472912 178.28217191 105.8893238 200.42495693 88.375 218.4375 C88.045 218.4375 87.715 218.4375 87.375 218.4375 C87.53355469 217.17035156 87.69210937 215.90320313 87.85546875 214.59765625 C89.50369436 199.61139177 88.75163127 185.8414132 84.375 171.4375 C84.02822071 170.09454814 83.68974847 168.74942539 83.359375 167.40234375 C81.68545596 160.61569372 79.7446581 154.57509154 76.375 148.4375 C76.375 147.7775 76.375 147.1175 76.375 146.4375 C78.025 146.4375 79.675 146.4375 81.375 146.4375 C92.24596634 163.50723012 94.71788851 183.65617823 95.375 203.4375 C102.18856471 194.22656993 107.58022624 184.82857915 112.375 174.4375 C112.78621094 173.56609375 113.19742188 172.6946875 113.62109375 171.796875 C126.27317773 142.84969454 123.19778565 109.71989419 112.35302734 80.88232422 C100.38594345 50.96760179 75.4022904 28.31354364 46.375 15.4375 C41.76868213 13.5976064 37.08379346 11.99349982 32.375 10.4375 C31.4984375 10.10363281 30.621875 9.76976563 29.71875 9.42578125 C9.66613971 3.49901676 -13.68217387 4.65197311 -33.625 10.4375 C-34.60049805 10.70240234 -34.60049805 10.70240234 -35.59570312 10.97265625 C-65.95325186 19.31094532 -91.90424995 41.51384726 -107.625 68.4375 C-123.6726586 97.50024836 -126.8364178 131.73382283 -118.375 163.6875 C-107.38857519 196.36361915 -84.83026635 220.67221255 -54.4375 236.25 C-50.28502753 238.30535788 -46.35879437 239.90768102 -41.875 241.0625 C-37.81679942 242.12029327 -37.81679942 242.12029327 -36 245.125 C-35.87625 245.888125 -35.7525 246.65125 -35.625 247.4375 C-54.12895911 244.75054785 -72.93265458 234.01703996 -86.625 221.4375 C-86.625 220.7775 -86.625 220.1175 -86.625 219.4375 C-87.22054687 219.16550781 -87.81609375 218.89351562 -88.4296875 218.61328125 C-100.6677389 212.05873771 -109.42930295 195.32898101 -115.625 183.4375 C-115.94098145 182.84211426 -116.25696289 182.24672852 -116.58251953 181.63330078 C-121.68846169 171.89510971 -124.64743918 162.23544618 -126.625 151.4375 C-126.85058594 150.22578125 -127.07617188 149.0140625 -127.30859375 147.765625 C-132.6026541 114.32176792 -124.84425969 81.05950184 -105.0390625 53.59765625 C-88.45037394 31.88204291 -66.40592583 13.07039286 -39.625 5.4375 C-38.60647949 5.12039062 -38.60647949 5.12039062 -37.56738281 4.796875 C-25.05583227 0.98786173 -12.9905329 -0.03027563 0 0 Z " fill="#182B42" transform="translate(250.625,93.5625)"/>
<path d="M0 0 C-3.12299721 10.27420821 -8.75929981 18.42778831 -18 24 C-24.20561619 27.28532622 -29.98665409 30.09573051 -37 31 C-36.67 32.11375 -36.34 33.2275 -36 34.375 C-33.77990211 43.5288819 -34.65364101 51.58967258 -39 60 C-43.71735626 67.01081749 -49.22537191 70.90712923 -57 74 C-57.75410156 74.31839844 -58.50820312 74.63679688 -59.28515625 74.96484375 C-65.47619044 77.3342519 -71.84399433 78.33049407 -78.26953125 76.2734375 C-83.43798193 73.91455277 -86.56887403 70.92358591 -89.09375 65.765625 C-90.18340952 62.44028473 -90.19554064 59.67926159 -90.125 56.1875 C-90.10695312 55.02605469 -90.08890625 53.86460937 -90.0703125 52.66796875 C-90.04710937 51.78753906 -90.02390625 50.90710938 -90 50 C-89.01 49.505 -89.01 49.505 -88 49 C-87.75765625 49.66386719 -87.5153125 50.32773438 -87.265625 51.01171875 C-84.10701112 59.33345147 -81.17243239 64.19397912 -72.91796875 68.046875 C-66.32494535 70.20041946 -58.97088614 70.25571953 -52.5625 67.4375 C-45.29717773 63.04771581 -41.01291211 56.15516962 -39 48 C-38.25223969 40.81478784 -38.25223969 40.81478784 -40 34 C-40.039992 32.00039988 -40.04346799 29.99952758 -40 28 C-39.11699219 27.70867187 -38.23398437 27.41734375 -37.32421875 27.1171875 C-24.41466723 22.70769514 -13.45356867 18.47517151 -6.81640625 5.7265625 C-6.54699219 5.15679687 -6.27757812 4.58703125 -6 4 C-7.7325 4.61875 -7.7325 4.61875 -9.5 5.25 C-18.86510154 8.34779775 -28.52628141 10.45412716 -38.14453125 12.6015625 C-74.09542537 20.41492113 -74.09542537 20.41492113 -100.140625 44.83984375 C-101.06101563 45.90912109 -101.06101563 45.90912109 -102 47 C-103.32 47 -104.64 47 -106 47 C-106.33931227 44.33397504 -106.67157176 41.66736986 -107 39 C-107.09539062 38.25621094 -107.19078125 37.51242188 -107.2890625 36.74609375 C-108.63556109 25.68556962 -107.55335444 19.37068438 -101 10 C-98.45989112 6.86793531 -95.81061183 3.89091503 -93 1 C-93 4.58331813 -93.9067665 5.76388717 -95.8125 8.75 C-101.30841657 17.79292656 -102.71672678 24.37314712 -102 35 C-101.67 35.66 -101.34 36.32 -101 37 C-100.67128906 36.50371094 -100.34257812 36.00742188 -100.00390625 35.49609375 C-87.30405127 17.35836049 -64.13168534 12.21201812 -43.46142578 8.55029297 C-39.31976838 7.89917622 -35.1753879 7.38809695 -31 7 C-31 6.34 -31 5.68 -31 5 C-33.64 4.67 -36.28 4.34 -39 4 C-39 3.34 -39 2.68 -39 2 C-34.70820957 1.80925376 -31.28567 2.17013145 -27.125 3.25 C-20.2712164 4.64172796 -14.31685724 2.75023343 -7.72265625 0.9453125 C-4 0 -4 0 0 0 Z " fill="#9F7A48" transform="translate(301,120)"/>
<path d="M0 0 C1.99954746 -0.04254356 4.00041636 -0.04080783 6 0 C7 1 7 1 7.0625 4.0625 C7.041875 5.031875 7.02125 6.00125 7 7 C7.99 6.835 8.98 6.67 10 6.5 C20.70790893 5.04476694 20.70790893 5.04476694 24.09765625 7.55078125 C26.50156612 10.64575351 27.36333627 13.75711624 28.25 17.5 C28.42273438 18.16386719 28.59546875 18.82773437 28.7734375 19.51171875 C29.60295717 22.81004694 30 25.57417398 30 29 C26.94796157 29.29346523 24.04492024 29.41161833 21 29 C18.6875 26.9375 18.6875 26.9375 17 24 C16.64164063 23.45730469 16.28328125 22.91460937 15.9140625 22.35546875 C13.29509374 18.24127314 12.39571831 14.84754932 12 10 C10.68 10 9.36 10 8 10 C9.26421218 14.95149772 10.98705181 19.37442933 13.1953125 23.984375 C14 26 14 26 14 29 C7.35590042 29.21432579 1.46794133 28.51233701 -5 27 C-6.75076617 21.7477015 -7.42695442 14.99164575 -4.98828125 9.87890625 C-3.6875 8.25 -3.6875 8.25 -1 6 C-0.01 6 0.98 6 2 6 C2 4.35 2 2.7 2 1 C1.34 0.67 0.68 0.34 0 0 Z " fill="#0E141D" transform="translate(231,313)"/>
<path d="M0 0 C3.3 0 6.6 0 10 0 C10.33 0.99 10.66 1.98 11 3 C11.60328125 2.26716797 11.60328125 2.26716797 12.21875 1.51953125 C14.46091008 -0.39318864 15.59237801 -0.37549848 18.5 -0.3125 C19.2734375 -0.30863281 20.046875 -0.30476563 20.84375 -0.30078125 C23 0 23 0 26 2 C26 2.66 26 3.32 26 4 C26.639375 3.34 27.27875 2.68 27.9375 2 C31.52214366 -0.34099178 33.65182509 -0.50620629 37.81640625 -0.62890625 C41.30351085 0.37542978 42.21328343 1.8604274 44 5 C44.61098522 8.43509466 44.69584246 11.8291853 44.75 15.3125 C44.77964844 16.24384766 44.80929688 17.17519531 44.83984375 18.13476562 C44.91025904 20.42326265 44.96309214 22.71075809 45 25 C45.99 25.33 46.98 25.66 48 26 C48 26.66 48 27.32 48 28 C43.38 28 38.76 28 34 28 C34 27.34 34 26.68 34 26 C34.99 25.67 35.98 25.34 37 25 C37.02888146 21.68751813 37.04675799 18.37506833 37.0625 15.0625 C37.07506836 13.64420898 37.07506836 13.64420898 37.08789062 12.19726562 C37.09111328 11.29814453 37.09433594 10.39902344 37.09765625 9.47265625 C37.10289307 8.64000244 37.10812988 7.80734863 37.11352539 6.94946289 C37.21643292 4.99483202 37.21643292 4.99483202 36 4 C31.6590631 4.14158662 31.6590631 4.14158662 28 6 C27.91348389 7.41570123 27.89295096 8.835595 27.90234375 10.25390625 C27.90717773 11.53491211 27.90717773 11.53491211 27.91210938 12.84179688 C27.92048828 13.73962891 27.92886719 14.63746094 27.9375 15.5625 C27.94201172 16.46419922 27.94652344 17.36589844 27.95117188 18.29492188 C27.96299775 20.53001314 27.9794778 22.76497437 28 25 C28.99 25.33 29.98 25.66 31 26 C31 26.66 31 27.32 31 28 C26.71 28 22.42 28 18 28 C18 27.34 18 26.68 18 26 C18.66 25.67 19.32 25.34 20 25 C20.02888146 21.68751813 20.04675799 18.37506833 20.0625 15.0625 C20.07087891 14.11697266 20.07925781 13.17144531 20.08789062 12.19726562 C20.09111328 11.29814453 20.09433594 10.39902344 20.09765625 9.47265625 C20.10289307 8.64000244 20.10812988 7.80734863 20.11352539 6.94946289 C20.21643292 4.99483202 20.21643292 4.99483202 19 4 C14.6590631 4.14158662 14.6590631 4.14158662 11 6 C10.91348389 7.41570123 10.89295096 8.835595 10.90234375 10.25390625 C10.90556641 11.10791016 10.90878906 11.96191406 10.91210938 12.84179688 C10.92048828 13.73962891 10.92886719 14.63746094 10.9375 15.5625 C10.94201172 16.46419922 10.94652344 17.36589844 10.95117188 18.29492188 C10.96299775 20.53001314 10.9794778 22.76497437 11 25 C11.99 25.33 12.98 25.66 14 26 C14 26.66 14 27.32 14 28 C9.38 28 4.76 28 0 28 C0 27.34 0 26.68 0 26 C1.65 25.67 3.3 25.34 5 25 C4.67 18.4 4.34 11.8 4 5 C2.68 4.34 1.36 3.68 0 3 C0 2.01 0 1.02 0 0 Z " fill="#EDEEEF" transform="translate(120,402)"/>
<path d="M0 0 C1.67542976 0.28604898 3.34385343 0.61781233 5 1 C5 2.65 5 4.3 5 6 C4.38125 6.061875 3.7625 6.12375 3.125 6.1875 C2.42375 6.455625 1.7225 6.72375 1 7 C0.30641821 8.65564686 -0.35691888 10.32409162 -1 12 C-1.8385325 13.29518555 -2.71598135 14.5657733 -3.625 15.8125 C-16.07032248 34.14494807 -19.86061882 53.41044534 -23 75 C-19.12392213 74.9479239 -15.25003829 74.85279802 -11.375 74.75 C-10.28058594 74.73582031 -9.18617188 74.72164063 -8.05859375 74.70703125 C0.3061966 74.49716722 0.3061966 74.49716722 7 70 C7.85436315 67.50907506 7.85436315 67.50907506 7.75 64.875 C7.83383686 60.16616314 7.83383686 60.16616314 10 58 C12.125 58.375 12.125 58.375 14 59 C14.495 60.98 14.495 60.98 15 63 C14.01 63.33 13.02 63.66 12 64 C12.020625 65.175625 12.04125 66.35125 12.0625 67.5625 C11.54121053 71.48954733 10.26324004 73.21050519 7.25 75.75 C1.3844397 80.07691923 -4.01385251 79.80762517 -11.0625 79.4375 C-12.21427734 79.40591797 -13.36605469 79.37433594 -14.55273438 79.34179688 C-17.3712059 79.25993256 -20.18420926 79.14534144 -23 79 C-23 80.65 -23 82.3 -23 84 C-24.32 84 -25.64 84 -27 84 C-27.86342895 56.65808313 -21.66314751 32.31232205 -5.796875 9.71875 C-3.93915858 6.90794429 -2.47732044 4.02416183 -1 1 C-0.67 0.67 -0.34 0.34 0 0 Z " fill="#3E342B" transform="translate(163,146)"/>
<path d="M0 0 C1.98 0 3.96 0 6 0 C6 2.64 6 5.28 6 8 C8.64 8 11.28 8 14 8 C14 8.99 14 9.98 14 11 C11.36 11 8.72 11 6 11 C6.495 21.395 6.495 21.395 7 32 C9.31 32.33 11.62 32.66 14 33 C14 33.66 14 34.32 14 35 C10.53269093 36.58505557 7.81875349 37.58750054 4 37 C1.86328125 35.6796875 1.86328125 35.6796875 0 33 C-0.50394576 29.24094074 -0.37485121 25.53395202 -0.25 21.75 C-0.23195312 20.71875 -0.21390625 19.6875 -0.1953125 18.625 C-0.14822712 16.08238936 -0.0824805 13.54166838 0 11 C-1.65 11 -3.3 11 -5 11 C-5.33 12.32 -5.66 13.64 -6 15 C-7.65 15 -9.3 15 -11 15 C-11.33 13.68 -11.66 12.36 -12 11 C-14.17637566 11.8321184 -14.17637566 11.8321184 -16 14 C-16.52614217 17.23390636 -16.37422316 20.42186437 -16.25 23.6875 C-16.22292969 25.02651367 -16.22292969 25.02651367 -16.1953125 26.39257812 C-16.14817759 28.59613504 -16.08240657 30.79752601 -16 33 C-14.68 33.33 -13.36 33.66 -12 34 C-12 34.66 -12 35.32 -12 36 C-16.95 36 -21.9 36 -27 36 C-27 35.34 -27 34.68 -27 34 C-25.515 33.505 -25.515 33.505 -24 33 C-24 26.07 -24 19.14 -24 12 C-24.99 11.67 -25.98 11.34 -27 11 C-27 10.01 -27 9.02 -27 8 C-23.7 8 -20.4 8 -17 8 C-16.67 8.66 -16.34 9.32 -16 10 C-15.01 9.34 -14.02 8.68 -13 8 C-9.9375 7.875 -9.9375 7.875 -7 8 C-6.34 8 -5.68 8 -5 8 C-3.33333333 8 -1.66666667 8 0 8 C0 5.36 0 2.72 0 0 Z " fill="#E5E6E8" transform="translate(227,394)"/>
<path d="M0 0 C0.99 0 1.98 0 3 0 C3.31227539 0.77077881 3.62455078 1.54155762 3.94628906 2.33569336 C5.12299079 5.23803557 6.30104838 8.13982289 7.47998047 11.04125977 C8.23377073 12.897534 8.98604278 14.7544245 9.73828125 16.61132812 C10.7043775 18.98792491 11.67625953 21.36217907 12.65429688 23.73388672 C13.48737244 25.75581793 14.30877508 27.78265528 15.11132812 29.81689453 C15.44068359 30.6211084 15.77003906 31.42532227 16.109375 32.25390625 C16.38233398 32.93912354 16.65529297 33.62434082 16.93652344 34.33032227 C18.29062365 36.45628446 19.69946141 37.06372735 22 38 C22 38.66 22 39.32 22 40 C16.39 40 10.78 40 5 40 C5 39.34 5 38.68 5 38 C6.98 37.505 6.98 37.505 9 37 C8.34 33.37 7.68 29.74 7 26 C2.38 26.33 -2.24 26.66 -7 27 C-7.99 30.3 -8.98 33.6 -10 37 C-8.02 37.33 -6.04 37.66 -4 38 C-4 38.66 -4 39.32 -4 40 C-8.95 40 -13.9 40 -19 40 C-19 39.34 -19 38.68 -19 38 C-18.39478516 37.78931885 -17.78957031 37.5786377 -17.16601562 37.36157227 C-14.15342496 35.46783713 -13.62722813 33.50812289 -12.34375 30.21484375 C-11.87839844 29.04373047 -11.41304688 27.87261719 -10.93359375 26.66601562 C-10.46050781 25.43560547 -9.98742187 24.20519531 -9.5 22.9375 C-8.55329737 20.52947027 -7.60540382 18.12190836 -6.65625 15.71484375 C-5.98335938 13.99563721 -5.98335938 13.99563721 -5.296875 12.24169922 C-3.64230281 8.10589171 -1.84935096 4.05199774 0 0 Z " fill="#F3F3F4" transform="translate(371,390)"/>
<path d="M0 0 C0.99 0 1.98 0 3 0 C3 4.29 3 8.58 3 13 C0 12 0 12 -1.09765625 10.1875 C-1.57525391 9.1046875 -1.57525391 9.1046875 -2.0625 8 C-3.32230077 4.8485304 -3.32230077 4.8485304 -6 3 C-9.5 2.75 -9.5 2.75 -13 3 C-15.27180354 4.87668319 -15.27180354 4.87668319 -15.4375 7.875 C-15.28246849 11.07341323 -15.28246849 11.07341323 -13.125 13.125 C-10.38408179 14.76955093 -7.98022517 15.78966426 -5 16.875 C-0.04881363 18.77418641 2.29454274 20.40072266 5 25 C5.6888259 29.28602784 5.31610666 31.36778669 3.375 35.25 C-0.14695675 39.32805518 -3.07286559 40.82480596 -8.4375 41.3125 C-12 41 -12 41 -15.6875 39.9375 C-19.10457584 38.67370503 -19.10457584 38.67370503 -23 40 C-23 35.38 -23 30.76 -23 26 C-22.01 26 -21.02 26 -20 26 C-19.74605469 26.54269531 -19.49210938 27.08539063 -19.23046875 27.64453125 C-18.88628906 28.35996094 -18.54210937 29.07539063 -18.1875 29.8125 C-17.85105469 30.52019531 -17.51460937 31.22789062 -17.16796875 31.95703125 C-15.94534175 34.09560624 -14.96013354 35.50435308 -13 37 C-10.78877681 37.43585262 -10.78877681 37.43585262 -8.4375 37.3125 C-7.65246094 37.30863281 -6.86742187 37.30476563 -6.05859375 37.30078125 C-3.77873166 37.17703023 -3.77873166 37.17703023 -2 35 C-1.79853598 31.306493 -1.82646811 28.52059568 -3 25 C-4.86392648 24.1171641 -4.86392648 24.1171641 -7.125 23.5625 C-12.74453022 21.85064949 -17.63454372 20.04818442 -21 15 C-21.60130648 11.58874208 -21.64115692 8.40682534 -21 5 C-15.73188949 -2.15881275 -7.85788249 -1.79608743 0 0 Z " fill="#F1F2F3" transform="translate(267,390)"/>
<path d="M0 0 C0.99 0 1.98 0 3 0 C3 4.29 3 8.58 3 13 C2.01 13 1.02 13 0 13 C-0.25394531 12.44570313 -0.50789063 11.89140625 -0.76953125 11.3203125 C-1.11371094 10.59585937 -1.45789063 9.87140625 -1.8125 9.125 C-2.14894531 8.40570313 -2.48539063 7.68640625 -2.83203125 6.9453125 C-3.99467097 4.69457194 -3.99467097 4.69457194 -7 3 C-10.58357241 2.74984127 -10.58357241 2.74984127 -14 3 C-15.20561184 3.98267859 -15.20561184 3.98267859 -15.09765625 5.84765625 C-15.08605469 6.57855469 -15.07445313 7.30945313 -15.0625 8.0625 C-15.041875 9.361875 -15.02125 10.66125 -15 12 C-14.49549316 12.25692627 -13.99098633 12.51385254 -13.47119141 12.77856445 C-11.18493508 13.94855257 -8.90499023 15.13035073 -6.625 16.3125 C-5.8309375 16.71662109 -5.036875 17.12074219 -4.21875 17.53710938 C-3.45820312 17.93349609 -2.69765625 18.32988281 -1.9140625 18.73828125 C-0.8614624 19.28029175 -0.8614624 19.28029175 0.21240234 19.83325195 C2 21 2 21 4 24 C4.67581494 27.73476676 4.80786958 31.41764389 3.0546875 34.8515625 C0.49677542 38.11732446 -1.98371183 40.0659795 -6 41 C-11.72775311 41.45458358 -14.95691856 41.02584887 -20 38 C-20 38.66 -20 39.32 -20 40 C-20.99 40 -21.98 40 -23 40 C-23 35.38 -23 30.76 -23 26 C-20 27 -20 27 -18.9375 28.77734375 C-18.628125 29.49019531 -18.31875 30.20304687 -18 30.9375 C-16.57626295 34.20616298 -16.12562542 34.91624972 -13 37 C-9.45934047 37.54965884 -6.15018652 37.59252033 -2.9375 35.9375 C-1.36132867 32.68007924 -2.0304009 30.39359685 -3 27 C-4.9817035 25.1880818 -4.9817035 25.1880818 -8 24 C-9.7124595 23.175179 -11.42046283 22.3410709 -13.125 21.5 C-13.97320312 21.0978125 -14.82140625 20.695625 -15.6953125 20.28125 C-19.25436903 18.30265586 -20.70432702 16.88701895 -22 13 C-22.375 9.625 -22.375 9.625 -22 6 C-15.37669894 -2.05536615 -9.71088575 -1.49398242 0 0 Z " fill="#F3F3F4" transform="translate(112,390)"/>
<path d="M0 0 C2.29296875 1.359375 2.29296875 1.359375 4 4 C4.62719348 7.57831184 4.69687793 11.12321153 4.75 14.75 C4.77964844 15.73355469 4.80929688 16.71710938 4.83984375 17.73046875 C4.91042411 20.15372776 4.96317701 22.57603154 5 25 C6.32 25.33 7.64 25.66 9 26 C9 26.66 9 27.32 9 28 C2.6 29.35384615 2.6 29.35384615 -0.4375 27.5625 C-0.953125 27.046875 -1.46875 26.53125 -2 26 C-2.70125 26.495 -3.4025 26.99 -4.125 27.5 C-7.45800237 29.23895776 -9.29065683 29.47353317 -13 29 C-15.375 28.0625 -15.375 28.0625 -17 26 C-17.69101093 22.85470886 -17.73518324 20.14020129 -17 17 C-12.88350058 12.98905184 -7.42236607 11.59056071 -2 10 C-1.83312552 7.58354218 -1.83312552 7.58354218 -2 5 C-4.5654594 2.4345406 -6.47686668 2.45953913 -10 2 C-10 3.98 -10 5.96 -10 8 C-11.65 8.33 -13.3 8.66 -15 9 C-15.33 7.35 -15.66 5.7 -16 4 C-11.60579079 -0.84878257 -6.18151354 -1.25288501 0 0 Z " fill="#ECEDEE" transform="translate(189,402)"/>
<path d="M0 0 C5.42203983 -0.44786621 7.74361445 1.52827741 11.78515625 4.890625 C19.36356533 12.10815746 22.60716492 20.82421257 23.17578125 31.2109375 C23.18582702 33.81614143 23.13824926 36.39886574 23 39 C22.01 39.495 22.01 39.495 21 40 C20.67 38.02 20.34 36.04 20 34 C18.515 33.505 18.515 33.505 17 33 C15.75571453 31.52650405 14.51546464 30.04877708 13.3203125 28.53515625 C11.93036177 26.80760465 11.93036177 26.80760465 9.5 25.125 C4.66331962 21.01382168 1.38799114 15.18286961 0 9 C-0.1437517 5.99112829 -0.1203677 3.00919248 0 0 Z " fill="#0E427B" transform="translate(302,286)"/>
<path d="M0 0 C3.6578218 2.03993908 5.66946174 3.50419262 8 7 C8 9.31 8 11.62 8 14 C2.06 14 -3.88 14 -10 14 C-8.61661673 21.43943934 -8.61661673 21.43943934 -6 25 C-3.90157631 25.47722472 -3.90157631 25.47722472 -1.5625 25.375 C-0.78003906 25.38273437 0.00242187 25.39046875 0.80859375 25.3984375 C3.46495085 24.91546348 4.22412291 23.95708904 6 22 C6.66 22 7.32 22 8 22 C7.76793596 25.24889654 6.93662944 26.05564244 4.4375 28.25 C0.33823067 30.33690075 -2.49790829 30.87166247 -7 30 C-10.99305623 28.11648291 -12.63566352 26.61937202 -14.875 22.8125 C-16.6425289 16.82254096 -17.19842337 12.23154696 -14.1875 6.625 C-9.84377572 1.41253086 -7.12468151 -0.69849819 0 0 Z " fill="#EBEBED" transform="translate(329,401)"/>
<path d="M0 0 C4.14613048 1.79037453 6.20962547 3.85386952 8 8 C8.54957375 12.31807946 8.2941115 14.44328894 6.25 18.3125 C3.24080771 21.90681302 1.68299118 22.82095839 -2.9375 23.3125 C-7.49909416 22.84703121 -9.90599455 21.3203514 -12.8125 17.8125 C-14.3807393 14.09824902 -14.74002883 10.97363309 -14 7 C-10.28937969 1.11418847 -6.90600742 -0.59534547 0 0 Z " fill="#0F85EA" transform="translate(234,153)"/>
<path d="M0 0 C1.09054688 0.02320313 2.18109375 0.04640625 3.3046875 0.0703125 C4.40039062 0.08835938 5.49609375 0.10640625 6.625 0.125 C7.46804687 0.14820313 8.31109375 0.17140625 9.1796875 0.1953125 C9.34205495 2.78116455 9.46064236 5.35683204 9.5546875 7.9453125 C9.60496094 8.67492187 9.65523437 9.40453125 9.70703125 10.15625 C9.765625 12.3046875 9.765625 12.3046875 9.1796875 16.1953125 C6.30078125 18.578125 6.30078125 18.578125 3.1796875 20.1953125 C-1.07465778 24.10471086 -1.38777419 27.66602285 -1.7421875 33.18359375 C-1.76796875 33.84746094 -1.79375 34.51132813 -1.8203125 35.1953125 C-4.8203125 34.1953125 -4.8203125 34.1953125 -5.98828125 32.40234375 C-9.33453546 24.54313368 -10.64950598 15.88803613 -7.984375 7.59375 C-4.46117884 0.3089459 -4.46117884 0.3089459 0 0 Z " fill="#F1AC57" transform="translate(194.8203125,169.8046875)"/>
<path d="M0 0 C2.56963685 0.98914891 3.77859453 1.6237554 5.1953125 4.03125 C11.28613167 20.20518999 12.94935937 41.34410334 6.9296875 57.953125 C6.62289063 58.62859375 6.31609375 59.3040625 6 60 C5.67 60 5.34 60 5 60 C4.96132813 58.27716797 4.96132813 58.27716797 4.921875 56.51953125 C4.59817987 46.65641296 3.48301701 38.30255793 0 29 C-1.19297484 25.42107547 -1.14906738 22.16106696 -1.125 18.4375 C-1.12306641 17.72529297 -1.12113281 17.01308594 -1.11914062 16.27929688 C-1.07460313 10.81108194 -0.72999859 5.42284668 0 0 Z " fill="#0C3B72" transform="translate(325,264)"/>
<path d="M0 0 C0.3125 2.3125 0.3125 2.3125 0 5 C-2.375 6.625 -2.375 6.625 -5 8 C-7.45598077 11.68397116 -7.2271532 14.44723808 -7.125 18.6875 C-7.08375 21.100625 -7.0425 23.51375 -7 26 C-0.73 26.66 5.54 27.32 12 28 C10.515 24.968125 10.515 24.968125 9 21.875 C6.76636141 17.31465455 5.6281307 14.09770828 6 9 C7.32 9 8.64 9 10 9 C10.391875 10.134375 10.78375 11.26875 11.1875 12.4375 C12.71665795 16.56916715 14.74876312 20.24793854 17.01171875 24.01953125 C18 26 18 26 18 29 C17.30132812 29.04898437 16.60265625 29.09796875 15.8828125 29.1484375 C14.97273438 29.22320312 14.06265625 29.29796875 13.125 29.375 C11.76761719 29.47941406 11.76761719 29.47941406 10.3828125 29.5859375 C7.82058097 29.79568132 7.82058097 29.79568132 6 32 C3.39291319 31.86875078 0.94810048 31.62563087 -1.625 31.25 C-2.346875 31.15219238 -3.06875 31.05438477 -3.8125 30.95361328 C-8.64131391 30.27265464 -13.31353883 29.36688451 -18 28 C-18.33 26.35 -18.66 24.7 -19 23 C-17.35 23.33 -15.7 23.66 -14 24 C-14.04640625 23.3709375 -14.0928125 22.741875 -14.140625 22.09375 C-14.4067857 15.78193923 -13.7936879 11.16118005 -10 6 C-4.35897436 0 -4.35897436 0 0 0 Z " fill="#192A3E" transform="translate(233,314)"/>
<path d="M0 0 C0 3.58331813 -0.9067665 4.76388717 -2.8125 7.75 C-8.30841657 16.79292656 -9.71672678 23.37314712 -9 34 C-8.67 34.66 -8.34 35.32 -8 36 C-7.67128906 35.50371094 -7.34257812 35.00742188 -7.00390625 34.49609375 C-1.7317349 26.9664615 5.06417277 20.69760822 14 18 C17.4375 18.3125 17.4375 18.3125 20 19 C20 19.66 20 20.32 20 21 C19.154375 21.42410156 18.30875 21.84820312 17.4375 22.28515625 C6.56962351 27.90434239 -0.40149444 33.49444292 -7.140625 43.83984375 C-8.06101563 44.90912109 -8.06101563 44.90912109 -9 46 C-10.32 46 -11.64 46 -13 46 C-13.33931227 43.33397504 -13.67157176 40.66736986 -14 38 C-14.09539062 37.25621094 -14.19078125 36.51242188 -14.2890625 35.74609375 C-15.63556109 24.68556962 -14.55335444 18.37068438 -8 9 C-5.45989112 5.86793531 -2.81061183 2.89091503 0 0 Z " fill="#EEAC5B" transform="translate(208,121)"/>
<path d="M0 0 C6.83944205 3.14492201 12.24671665 8.03114767 15.2578125 14.97265625 C17.74110128 21.75595561 18.26638828 27.77791785 18 35 C13.82399416 34.48647724 11.82602118 32.22716164 8.9375 29.3125 C8.08027344 28.46300781 7.22304688 27.61351562 6.33984375 26.73828125 C1.36093162 20.91154101 0.51897657 16.02276063 0.3125 8.625 C0.27833984 7.79355469 0.24417969 6.96210938 0.20898438 6.10546875 C0.12712854 4.07076649 0.06187299 2.03540792 0 0 Z " fill="#1C6AAE" transform="translate(301,250)"/>
<path d="M0 0 C5.38348037 0.63335063 9.20910893 3.20910893 13 7 C13.40116741 8.71887059 13.74613708 10.45101911 14.0625 12.1875 C15.71206717 19.35009427 19.219522 24.84158574 23.13671875 30.9453125 C25 34 25 34 25 36 C19.53625551 35.65851597 15.85552935 32.61411499 12 29 C5.57040545 21.66022691 -0.16886578 12.89342735 -0.25 2.8125 C-0.1675 1.884375 -0.085 0.95625 0 0 Z " fill="#1D6DB0" transform="translate(281,278)"/>
<path d="M0 0 C6.27 0 12.54 0 19 0 C19 0.66 19 1.32 19 2 C17.35 2.33 15.7 2.66 14 3 C13.67 14.22 13.34 25.44 13 37 C14.65 37.33 16.3 37.66 18 38 C18 38.66 18 39.32 18 40 C12.39 40 6.78 40 1 40 C1 39.34 1 38.68 1 38 C2.98 37.505 2.98 37.505 5 37 C5 26.11 5 15.22 5 4 C2.525 3.01 2.525 3.01 0 2 C0 1.34 0 0.68 0 0 Z " fill="#E6E7E9" transform="translate(393,390)"/>
<path d="M0 0 C4.92027315 0.66715568 6.66504117 2.13677889 9.65234375 5.94921875 C15.10812577 14.25149574 15.53880221 25.39340176 17 35 C9.08751483 32.05457405 4.73250767 27.3002897 0.8984375 19.86328125 C-0.33669398 15.92697093 -0.21427458 12.28382981 -0.125 8.1875 C-0.11597656 7.39923828 -0.10695313 6.61097656 -0.09765625 5.79882812 C-0.07422504 3.86575334 -0.03835838 1.9328362 0 0 Z " fill="#2798E5" transform="translate(260,259)"/>
<path d="M0 0 C4.12417966 2.62886306 7.67268043 5.38689118 11.25 8.75 C17.7432511 14.7329414 24.31955553 20.3685728 31.8125 25.0625 C36.55045921 28.17362012 40.19318895 31.54830462 41.51953125 37.22265625 C41.77293634 39.13839874 41.89843376 41.07024153 42 43 C39.525 43.495 39.525 43.495 37 44 C36.443125 43.29875 35.88625 42.5975 35.3125 41.875 C31.05855375 36.58631006 26.73167076 31.62720739 21.84765625 26.91796875 C19.39401529 24.37095457 17.40215867 21.5878931 15.421875 18.6640625 C13.78115517 16.74387941 12.30519543 15.98662365 10 15 C9.34 14.67 8.68 14.34 8 14 C8 13.34 8 12.68 8 12 C7.34 12 6.68 12 6 12 C5.18432826 10.56429734 4.37257907 9.12636566 3.5625 7.6875 C3.11003906 6.88699219 2.65757812 6.08648437 2.19140625 5.26171875 C1 3 1 3 0 0 Z " fill="#23384D" transform="translate(242,295)"/>
<path d="M0 0 C0.28101563 0.5775 0.56203125 1.155 0.8515625 1.75 C5.12092115 10.11445777 9.77581882 16.9104906 19 20 C22.99666044 20.59264205 26.96367069 20.86545569 31 21 C31 22.32 31 23.64 31 25 C24.2947774 27.98009894 17.93207217 29.57622925 10.7265625 27.2734375 C5.56217706 24.91202706 2.42402642 21.9246134 -0.08984375 16.76171875 C-1.1767285 13.46374656 -1.23063291 10.71631783 -1.1875 7.25 C-1.18105469 6.10015625 -1.17460937 4.9503125 -1.16796875 3.765625 C-1 1 -1 1 0 0 Z " fill="#D29B51" transform="translate(212,169)"/>
<path d="M0 0 C1.9375 0.5625 1.9375 0.5625 4 2 C4.6875 5.4375 4.6875 5.4375 5 9 C5.33 9.99 5.66 10.98 6 12 C6.60352316 19.39315869 6.32406794 24.67771346 1.69921875 30.69140625 C-1.08483842 33.66889667 -3.07625687 34.88055046 -7.171875 35.41015625 C-12.25493803 35.45040675 -17.03606015 35.11642513 -22 34 C-20.92598892 31.08482708 -20.22189824 29.22189824 -18 27 C-18 27.66 -18 28.32 -18 29 C-9.56293742 29.45730626 -9.56293742 29.45730626 -2 26 C0.75782723 21.60649593 0.67989636 17.02807077 0 12 C-1.09034392 9.59176212 -2.27793655 8.04495034 -4 6 C-2.84826645 3.53199953 -1.95216435 1.95216435 0 0 Z " fill="#172B40" transform="translate(282,149)"/>
<path d="M0 0 C1.98 0 3.96 0 6 0 C6 2.64 6 5.28 6 8 C8.64 8 11.28 8 14 8 C14 8.99 14 9.98 14 11 C11.36 11 8.72 11 6 11 C6.33 17.93 6.66 24.86 7 32 C9.31 32.33 11.62 32.66 14 33 C14 33.66 14 34.32 14 35 C11.67313547 36.16343227 10.15278587 36.19895988 7.5625 36.25 C6.78003906 36.27578125 5.99757813 36.3015625 5.19140625 36.328125 C2.40301419 35.91061175 1.70458471 35.21945485 0 33 C-0.34057617 30.63989258 -0.34057617 30.63989258 -0.29296875 27.89453125 C-0.28330078 26.91162109 -0.27363281 25.92871094 -0.26367188 24.91601562 C-0.23853516 23.89185547 -0.21339844 22.86769531 -0.1875 21.8125 C-0.17396484 20.77673828 -0.16042969 19.74097656 -0.14648438 18.67382812 C-0.11111389 16.11536301 -0.06175544 13.5579422 0 11 C-1.65 11 -3.3 11 -5 11 C-5 10.01 -5 9.02 -5 8 C-3.35 8 -1.7 8 0 8 C0 5.36 0 2.72 0 0 Z " fill="#E6E7E9" transform="translate(296,394)"/>
<path d="M0 0 C0.66 0.33 1.32 0.66 2 1 C-0.25449398 5.68424898 -2.6016343 7.18526071 -7.3125 9.25 C-8.42238281 9.75015625 -9.53226562 10.2503125 -10.67578125 10.765625 C-13.8192713 11.9328904 -16.68251514 12.57841342 -20 13 C-19.67 14.11375 -19.34 15.2275 -19 16.375 C-16.77990211 25.5288819 -17.65364101 33.58967258 -22 42 C-26.71162856 49.00230512 -32.25168116 52.84033719 -40 56 C-40.33 54.68 -40.66 53.36 -41 52 C-40.41992188 51.72027344 -39.83984375 51.44054687 -39.2421875 51.15234375 C-30.81489772 46.82744751 -25.99371772 41.71098645 -22.68359375 32.76953125 C-21.42119364 27.65500738 -20.57698968 20.84602064 -23 16 C-23.039992 14.00039988 -23.04346799 11.99952758 -23 10 C-22.09378906 9.69707031 -21.18757813 9.39414063 -20.25390625 9.08203125 C-13.7058141 6.83004189 -7.56883843 4.52254142 -1.671875 0.8203125 C-1.12015625 0.54960937 -0.5684375 0.27890625 0 0 Z " fill="#9B794D" transform="translate(284,138)"/>
<path d="M0 0 C3.88963859 1.52431783 5.72189877 3.86029373 8.25 7.125 C11.11434778 10.73492759 13.99865287 14.11014679 17.3125 17.3125 C20.42913746 20.34826663 22.87618118 23.19482461 25 27 C25 27.99 25 28.98 25 30 C22.69 30 20.38 30 18 30 C18 29.34 18 28.68 18 28 C17.34 28 16.68 28 16 28 C16 28.99 16 29.98 16 31 C14.35 31 12.7 31 11 31 C10.87995605 30.44127197 10.75991211 29.88254395 10.63623047 29.30688477 C7.91169801 15.52970252 7.91169801 15.52970252 1.13671875 3.4609375 C0 2 0 2 0 0 Z " fill="#1D2126" transform="translate(253,310)"/>
<path d="M0 0 C1.65 0 3.3 0 5 0 C5.39832031 0.84949219 5.79664063 1.69898438 6.20703125 2.57421875 C7.76632474 5.55352244 9.48334269 8.25081775 11.4140625 10.99829102 C29.03092511 36.0962408 29.03092511 36.0962408 27.625 46.875 C27.315625 47.926875 27.315625 47.926875 27 49 C26.01 49 25.02 49 24 49 C23.75507813 48.05382812 23.51015625 47.10765625 23.2578125 46.1328125 C21.03201038 38.07497584 18.14965657 30.8053901 14.0625 23.5 C13.65596191 22.77184082 13.24942383 22.04368164 12.83056641 21.29345703 C7.94608314 11.944034 7.94608314 11.944034 0 6 C0 4.02 0 2.04 0 0 Z " fill="#69543B" transform="translate(331,145)"/>
<path d="M0 0 C3.32371315 9.14021116 3.06840648 18.18511929 -1 27 C-1.66 26.67 -2.32 26.34 -3 26 C-2.67 25.01 -2.34 24.02 -2 23 C-4.97 23 -7.94 23 -11 23 C-11 21.35 -11 19.7 -11 18 C-8.69 18 -6.38 18 -4 18 C-4 18.66 -4 19.32 -4 20 C-2.68 20 -1.36 20 0 20 C0 18.02 0 16.04 0 14 C-3.3 14 -6.6 14 -10 14 C-11.45360825 4.79381443 -11.45360825 4.79381443 -9.5 1.375 C-6.20239924 -0.43868042 -3.70342588 -0.28487891 0 0 Z " fill="#061B37" transform="translate(261,149)"/>
<path d="M0 0 C1.2065625 0.0309375 1.2065625 0.0309375 2.4375 0.0625 C3.02025444 2.80977093 3.48778497 5.50024388 3.80859375 8.29296875 C5.56735775 18.83462872 10.89842385 29.65511638 17.4375 38.0625 C18.4275 38.7225 19.4175 39.3825 20.4375 40.0625 C20.1075 41.7125 19.7775 43.3625 19.4375 45.0625 C17.0625 44.875 17.0625 44.875 14.4375 44.0625 C13.71770969 42.41807787 13.05883825 40.74659055 12.4375 39.0625 C11.53144701 37.48155709 10.59235495 35.91919458 9.625 34.375 C3.33909259 24.00554691 -1.73441193 13.18446492 -3.5625 1.0625 C-2.5625 0.0625 -2.5625 0.0625 0 0 Z " fill="#7B6140" transform="translate(142.5625,244.9375)"/>
<path d="M0 0 C3.63 0 7.26 0 11 0 C11.33 8.25 11.66 16.5 12 25 C12.99 25.33 13.98 25.66 15 26 C15 26.66 15 27.32 15 28 C10.38 28 5.76 28 1 28 C1 27.34 1 26.68 1 26 C1.99 25.67 2.98 25.34 4 25 C4 18.07 4 11.14 4 4 C2.68 3.67 1.36 3.34 0 3 C0 2.01 0 1.02 0 0 Z " fill="#E6E7E8" transform="translate(275,402)"/>
<path d="M0 0 C-2.57705689 8.577557 -7.30010531 17.10006701 -15 22 C-15.99 21.67 -16.98 21.34 -18 21 C-17.30132812 20.10796875 -16.60265625 19.2159375 -15.8828125 18.296875 C-14.96336137 17.11472354 -14.04410051 15.93242408 -13.125 14.75 C-12.66480469 14.16347656 -12.20460938 13.57695312 -11.73046875 12.97265625 C-9.49615028 10.09070923 -7.4532826 7.37428833 -6 4 C-6.53367187 4.20496094 -7.06734375 4.40992187 -7.6171875 4.62109375 C-16.17569591 7.71577932 -23.36362338 9.12908507 -32.015625 5.76953125 C-34.30620987 4.88125326 -36.57781248 4.39067541 -39 4 C-39 3.34 -39 2.68 -39 2 C-34.70820957 1.80925376 -31.28567 2.17013145 -27.125 3.25 C-20.2712164 4.64172796 -14.31685724 2.75023343 -7.72265625 0.9453125 C-4 0 -4 0 0 0 Z " fill="#BF8E4D" transform="translate(301,120)"/>
<path d="M0 0 C0.99 0 1.98 0 3 0 C3 8.51299011 -2.9410797 14.33814605 -8.16015625 20.5859375 C-13.39627568 27.45625981 -13.9079198 36.6873425 -15 45 C-17.475 45.495 -17.475 45.495 -20 46 C-17.03000871 23.38689798 -17.03000871 23.38689798 -9 15 C-4.54546016 10.1787426 -1.9940281 6.31442231 0 0 Z " fill="#886B46" transform="translate(204,220)"/>
<path d="M0 0 C1.52499936 5.14960279 1.08215774 10.30802453 0.9375 15.625 C0.93556641 16.66785156 0.93363281 17.71070313 0.93164062 18.78515625 C0.72997657 25.65889701 -0.59923198 30.08991715 -4.52514648 35.75927734 C-6.06227056 38.09460672 -7.04430317 40.37969924 -8 43 C-9.32 42.67 -10.64 42.34 -12 42 C-12 38 -12 38 -10.75 36.6875 C-10.1725 36.130625 -9.595 35.57375 -9 35 C-3.96308566 28.42194023 -4.53080555 22.1010351 -4.75 14.0625 C-4.77707031 12.17821289 -4.77707031 12.17821289 -4.8046875 10.25585938 C-4.85162406 7.16978084 -4.91727586 4.08529219 -5 1 C-3 0 -3 0 0 0 Z " fill="#584734" transform="translate(226,272)"/>
<path d="M0 0 C2.97 0 5.94 0 9 0 C9.72413373 3.31143006 10.16354255 6.47844221 10.31640625 9.86328125 C10.37924805 11.19262695 10.37924805 11.19262695 10.44335938 12.54882812 C10.48267578 13.46083984 10.52199219 14.37285156 10.5625 15.3125 C10.60568359 16.24384766 10.64886719 17.17519531 10.69335938 18.13476562 C10.79897225 20.42304454 10.90107752 22.71142372 11 25 C11.99 25.33 12.98 25.66 14 26 C14 26.66 14 27.32 14 28 C9.38 28 4.76 28 0 28 C0 27.34 0 26.68 0 26 C1.65 25.67 3.3 25.34 5 25 C4.67 18.4 4.34 11.8 4 5 C2.68 4.34 1.36 3.68 0 3 C0 2.01 0 1.02 0 0 Z " fill="#F4F4F5" transform="translate(120,402)"/>
<path d="M0 0 C3.51635308 0.68611767 5.14154909 1.87153902 7.5625 4.5 C8.125 7.5 8.125 7.5 7.5625 10.5 C5.9375 12.875 5.9375 12.875 3.5625 14.5 C-0.1092087 15.11195145 -1.72563568 14.98706506 -4.8125 12.875 C-6.92456506 9.78813568 -7.04945145 8.1717087 -6.4375 4.5 C-4.47828918 1.74259218 -3.32662957 0.68238555 0 0 Z " fill="#21B4F6" transform="translate(230.4375,156.5)"/>
<path d="M0 0 C3.87705056 0.57437786 6.11543577 2.42728055 9 5 C11.12961311 9.25922623 10.56644259 14.94499896 9.328125 19.4375 C8.61647787 21.31732261 7.81634586 23.16322181 7 25 C4.10539236 22.10539236 3.79441146 18.62727998 2.9375 14.75 C2.76412109 13.99847656 2.59074219 13.24695313 2.41210938 12.47265625 C1.46919993 8.33252514 0.6484815 4.19841631 0 0 Z " fill="#258DD6" transform="translate(277,247)"/>
<path d="M0 0 C1.32 0.33 2.64 0.66 4 1 C2.17892246 8.40571532 -1.01313062 12.90811925 -6.0390625 18.6171875 C-9.29149317 22.56934429 -9.24307253 26.21355796 -9.5625 31.1875 C-9.68818359 33.09595703 -9.68818359 33.09595703 -9.81640625 35.04296875 C-9.90728516 36.50669922 -9.90728516 36.50669922 -10 38 C-11.32 38 -12.64 38 -14 38 C-14.23001884 26.54218649 -12.93552645 19.83097496 -5 11 C-2.14441083 7.50173763 -1.10006301 4.40025206 0 0 Z " fill="#8B6F46" transform="translate(213,223)"/>
<path d="M0 0 C0.3125 2.3125 0.3125 2.3125 0 5 C-2.375 6.625 -2.375 6.625 -5 8 C-7.45391569 11.68087353 -7.22802759 14.44355588 -7.125 18.6875 C-7.11146484 19.7403418 -7.11146484 19.7403418 -7.09765625 20.81445312 C-7.07413704 22.54311525 -7.03826713 24.27160145 -7 26 C-8.98 25.67 -10.96 25.34 -13 25 C-13.75738944 11.00933402 -13.75738944 11.00933402 -9 5 C-4.10230179 0 -4.10230179 0 0 0 Z " fill="#453A2E" transform="translate(233,314)"/>
<path d="M0 0 C4.25428751 4.12536971 8.12331466 8.52119119 12 13 C13.80623675 15.04781162 15.61303405 17.09511327 17.421875 19.140625 C21.365034 23.7865252 22.71360875 27.06280962 24 33 C21.12640054 30.22834642 18.62839504 27.34425836 16.1875 24.1875 C12.71896792 19.80348176 9.04600333 15.84863732 5 12 C-0.45822102 6.78436658 -0.45822102 6.78436658 -2 3 C-1.34 2.01 -0.68 1.02 0 0 Z " fill="#283C50" transform="translate(308,197)"/>
<path d="M0 0 C0.99 0 1.98 0 3 0 C3.14464559 7.52157046 -0.17658038 11.09699858 -4.78125 16.81640625 C-7.63366191 20.9092156 -8.87203353 24.89067646 -10.05078125 29.69921875 C-10.52064453 30.83810547 -10.52064453 30.83810547 -11 32 C-13.10546875 32.83203125 -13.10546875 32.83203125 -15 33 C-15 23.77442231 -10.68091008 17.16935531 -4.83984375 10.37109375 C-2.28380071 7.07700007 -1.17766968 3.97463519 0 0 Z " fill="#896D47" transform="translate(195,214)"/>
<path d="M0 0 C1.80078125 0.0546875 1.80078125 0.0546875 4 1 C5.28025064 3.40459254 6.25624054 5.59003918 7.1875 8.125 C7.44724609 8.77726563 7.70699219 9.42953125 7.97460938 10.1015625 C9.62592349 14.40265973 10.50644012 18.42119147 11 23 C5.23767957 20.75626461 2.51018817 15.38687764 0 10 C-0.52344589 6.56346392 -0.46978827 3.43765706 0 0 Z " fill="#2A9DE5" transform="translate(263,237)"/>
<path d="M0 0 C0.99 0 1.98 0 3 0 C2.24222529 5.55701451 2.24222529 5.55701451 0.97314453 7.87792969 C-0.21714942 10.47352302 -0.22842565 12.35539421 -0.1953125 15.203125 C-0.18886719 16.1828125 -0.18242187 17.1625 -0.17578125 18.171875 C-0.15902344 19.18765625 -0.14226562 20.2034375 -0.125 21.25 C-0.11146484 22.796875 -0.11146484 22.796875 -0.09765625 24.375 C-0.07412011 26.91690287 -0.04124023 29.4583328 0 32 C-2.475 32.495 -2.475 32.495 -5 33 C-4.91912143 28.91585562 -4.80627597 24.83320414 -4.6875 20.75 C-4.66494141 19.59113281 -4.64238281 18.43226563 -4.61914062 17.23828125 C-4.58369141 16.12324219 -4.54824219 15.00820313 -4.51171875 13.859375 C-4.48553467 12.83295898 -4.45935059 11.80654297 -4.43237305 10.74902344 C-3.94587008 7.65584249 -3.00087249 6.34970774 -1 4 C-0.29485154 1.85266073 -0.29485154 1.85266073 0 0 Z " fill="#4E4031" transform="translate(216,253)"/>
<path d="M0 0 C1.65 0 3.3 0 5 0 C5.61101562 1.29550781 5.61101562 1.29550781 6.234375 2.6171875 C8.57817141 7.1077355 11.50417484 11.08560536 14.453125 15.1953125 C16 18 16 18 15.734375 20.3671875 C15.49203125 20.90601563 15.2496875 21.44484375 15 22 C14.34 22 13.68 22 13 22 C11.37890625 19.734375 11.37890625 19.734375 9.5625 16.75 C5.96917819 10.01138311 5.96917819 10.01138311 0 6 C0 4.02 0 2.04 0 0 Z " fill="#937146" transform="translate(331,145)"/>
<path d="M0 0 C0.08090971 1.62418745 0.13914995 3.24951745 0.1875 4.875 C0.22230469 5.77992188 0.25710937 6.68484375 0.29296875 7.6171875 C0.19628906 8.40351563 0.09960938 9.18984375 0 10 C-3.6441774 12.4294516 -5.71241272 12.16179575 -10 12 C-10.75 9.25 -10.75 9.25 -11 6 C-8.07747003 2.10329337 -4.87859027 0 0 0 Z " fill="#141D2B" transform="translate(188,415)"/>
<path d="M0 0 C0.99 0 1.98 0 3 0 C3.25394531 0.54269531 3.50789062 1.08539063 3.76953125 1.64453125 C4.11371094 2.35996094 4.45789063 3.07539063 4.8125 3.8125 C5.14894531 4.52019531 5.48539063 5.22789062 5.83203125 5.95703125 C7.03999337 8.06995496 8.10457893 9.47623012 10 11 C13.61023099 11.73041853 13.61023099 11.73041853 17 12 C17.33 12.99 17.66 13.98 18 15 C14.11588902 15.15853514 11.06864689 15.01977961 7.3125 13.9375 C3.89542416 12.67370503 3.89542416 12.67370503 0 14 C0 9.38 0 4.76 0 0 Z " fill="#D8DADC" transform="translate(244,416)"/>
<path d="M0 0 C1.32 0 2.64 0 4 0 C4.5878125 1.7015625 4.5878125 1.7015625 5.1875 3.4375 C6.71665795 7.56916715 8.74876312 11.24793854 11.01171875 15.01953125 C12 17 12 17 12 20 C10.35 20 8.7 20 7 20 C4.5 15 4.5 15 2 10 C1.6184375 9.29875 1.236875 8.5975 0.84375 7.875 C-0.3472413 5.22835266 -0.13005385 2.86118481 0 0 Z " fill="#5F4D38" transform="translate(239,323)"/>
<path d="M0 0 C0.33 2.64 0.66 5.28 1 8 C-1.0622048 8.054348 -3.12482816 8.09294961 -5.1875 8.125 C-6.33605469 8.14820313 -7.48460937 8.17140625 -8.66796875 8.1953125 C-11.91740372 8.00484152 -14.08660521 7.39360127 -17 6 C-17 4.02 -17 2.04 -17 0 C-15.02 0 -13.04 0 -11 0 C-11.020625 0.804375 -11.04125 1.60875 -11.0625 2.4375 C-11.29633621 4.93354885 -11.29633621 4.93354885 -10 6 C-8.33382885 6.04063832 -6.66611905 6.042721 -5 6 C-5.66 5.34 -6.32 4.68 -7 4 C-7 2.68 -7 1.36 -7 0 C-4.3333581 -1.33332095 -2.83319697 -0.67102033 0 0 Z " fill="#293540" transform="translate(243,182)"/>
<path d="M0 0 C2.91308822 1.45654411 3.05452316 3.35387648 4.125 6.375 C4.47820312 7.35210937 4.83140625 8.32921875 5.1953125 9.3359375 C6 12 6 12 6 15 C2.37 15 -1.26 15 -5 15 C-4.23239022 11.16195111 -3.40495674 8.23779856 -1.9375 4.6875 C-1.39416016 3.36298828 -1.39416016 3.36298828 -0.83984375 2.01171875 C-0.56269531 1.34785156 -0.28554688 0.68398438 0 0 Z " fill="#18212F" transform="translate(370,399)"/>
<path d="M0 0 C1.670625 0.37125 1.670625 0.37125 3.375 0.75 C4.375 2.75 4.375 2.75 4.375 8.75 C0.415 8.75 -3.545 8.75 -7.625 8.75 C-7.3125 5.375 -7.3125 5.375 -6.625 1.75 C-3.625 -0.25 -3.625 -0.25 0 0 Z " fill="#0C1624" transform="translate(326.625,404.25)"/>
<path d="M0 0 C3.80637 1.47751885 7.50570129 3.10956608 11.1875 4.875 C12.23292969 5.36742187 13.27835937 5.85984375 14.35546875 6.3671875 C17.09638467 8.05951077 17.946763 9.01475156 19 12 C16.36 12.99 13.72 13.98 11 15 C10.18595703 13.87851562 10.18595703 13.87851562 9.35546875 12.734375 C8.64003906 11.74953125 7.92460937 10.7646875 7.1875 9.75 C6.47980469 8.77546875 5.77210938 7.8009375 5.04296875 6.796875 C3.37845179 4.51810991 1.69998177 2.25234178 0 0 Z " fill="#0E2033" transform="translate(285,319)"/>
<path d="M0 0 C3 1 3 1 4.0625 2.77734375 C4.371875 3.49019531 4.68125 4.20304687 5 4.9375 C6.42373705 8.20616298 6.87437458 8.91624972 10 11 C11.9896995 11.39013716 13.99019869 11.73202649 16 12 C16.33 12.99 16.66 13.98 17 15 C11.32723489 15.29341888 8.00932754 15.00559652 3 12 C3 12.66 3 13.32 3 14 C2.01 14 1.02 14 0 14 C0 9.38 0 4.76 0 0 Z " fill="#E7E8E9" transform="translate(89,416)"/>
<path d="M0 0 C-2.57705689 8.577557 -7.30010531 17.10006701 -15 22 C-15.99 21.67 -16.98 21.34 -18 21 C-17.31292969 20.13117188 -16.62585938 19.26234375 -15.91796875 18.3671875 C-15.00753887 17.203339 -14.09739795 16.03926441 -13.1875 14.875 C-12.73568359 14.30523437 -12.28386719 13.73546875 -11.81835938 13.1484375 C-9.05620914 9.59998172 -6.88236519 6.11493785 -5 2 C-5.99 1.67 -6.98 1.34 -8 1 C-5.10765685 0.17361624 -3.11257569 0 0 0 Z " fill="#AB844C" transform="translate(301,120)"/>
<path d="M0 0 C4.79086553 -0.09777277 9.26812719 0.27201957 14 1 C14.99 1 15.98 1 17 1 C17 5.29 17 9.58 17 14 C16.01 14 15.02 14 14 14 C13.74605469 13.44570313 13.49210937 12.89140625 13.23046875 12.3203125 C12.88628906 11.59585937 12.54210937 10.87140625 12.1875 10.125 C11.85105469 9.40570313 11.51460937 8.68640625 11.16796875 7.9453125 C10.00532903 5.69457194 10.00532903 5.69457194 7 4 C5.7315625 3.7834375 5.7315625 3.7834375 4.4375 3.5625 C2 3 2 3 0 0 Z " fill="#DBDCDE" transform="translate(98,389)"/>
<path d="M0 0 C0.99 0 1.98 0 3 0 C3 6.93 3 13.86 3 21 C1.68 21 0.36 21 -1 21 C-1.22537111 17.87598221 -1.42738648 14.75088667 -1.625 11.625 C-1.68945312 10.73554688 -1.75390625 9.84609375 -1.8203125 8.9296875 C-1.871875 8.07890625 -1.9234375 7.228125 -1.9765625 6.3515625 C-2.02893066 5.56604004 -2.08129883 4.78051758 -2.13525391 3.97119141 C-2 2 -2 2 0 0 Z " fill="#252324" transform="translate(354,205)"/>
<path d="M0 0 C-0.27514648 1.90722656 -0.27514648 1.90722656 -1 4 C-3.73112741 5.12684953 -6.2330736 5.98163314 -9.0625 6.75 C-9.82111328 6.97042969 -10.57972656 7.19085938 -11.36132812 7.41796875 C-13.23656113 7.96048899 -15.11778259 8.48223106 -17 9 C-17 8.34 -17 7.68 -17 7 C-18.32 6.34 -19.64 5.68 -21 5 C-18.81716075 4.15229544 -16.63003921 3.32192453 -14.4375 2.5 C-13.21933594 2.0359375 -12.00117188 1.571875 -10.74609375 1.09375 C-6.9581081 -0.01223121 -3.92096767 -0.20185162 0 0 Z " fill="#B5894C" transform="translate(245,133)"/>
<path d="M0 0 C2.86442775 1.0427253 3.89247503 1.82585931 5.51953125 4.4609375 C5.94621094 5.42257812 6.37289063 6.38421875 6.8125 7.375 C7.25207031 8.33148438 7.69164062 9.28796875 8.14453125 10.2734375 C9.03055316 13.09737949 9.04819136 14.28627758 8 17 C6.87105124 16.06725891 5.74699124 15.12859878 4.625 14.1875 C3.99851562 13.66542969 3.37203125 13.14335937 2.7265625 12.60546875 C0.07961759 10.1441693 -0.96483694 8.5743299 -1.1875 4.9375 C-1 2 -1 2 0 0 Z " fill="#237CC0" transform="translate(291,262)"/>
<path d="M0 0 C2.87264846 2.7881588 5.64418592 5.63978401 8.3125 8.625 C8.82425781 9.19476563 9.33601563 9.76453125 9.86328125 10.3515625 C11 12 11 12 11 15 C6.63521657 14.83212371 4.63131724 14.66369248 1.5625 11.4375 C-0.36922033 7.18771527 -0.31817712 4.61356825 0 0 Z " fill="#1E73B7" transform="translate(260,215)"/>
<path d="M0 0 C3.39540434 1.13180145 4.15357852 2.10357199 6.375 4.8125 C8.50327795 7.35649254 10.22483989 9.16265014 12.9375 11.125 C15 13 15 13 15.3125 16.25 C15.1578125 17.61125 15.1578125 17.61125 15 19 C13 19 13 19 11.484375 17.49609375 C10.91203125 16.81675781 10.3396875 16.13742188 9.75 15.4375 C7.02363531 12.20452748 7.02363531 12.20452748 4.20703125 9.05078125 C3.66433594 8.45652344 3.12164062 7.86226562 2.5625 7.25 C2.06878906 6.71890625 1.57507813 6.1878125 1.06640625 5.640625 C0 4 0 4 0 0 Z " fill="#226EAE" transform="translate(280,220)"/>
<path d="M0 0 C0.99 0.33 1.98 0.66 3 1 C3 6.94 3 12.88 3 19 C1.68 19 0.36 19 -1 19 C-1.02683987 16.02077407 -1.04676037 13.04178705 -1.0625 10.0625 C-1.07087891 9.21236328 -1.07925781 8.36222656 -1.08789062 7.48632812 C-1.09111328 6.67744141 -1.09433594 5.86855469 -1.09765625 5.03515625 C-1.10289307 4.2862915 -1.10812988 3.53742676 -1.11352539 2.76586914 C-1 1 -1 1 0 0 Z " fill="#4A3D2F" transform="translate(233,284)"/>
<path d="M0 0 C2.86724686 0.57344937 3.8614515 0.8614515 6 3 C6.1953125 6.0390625 6.1953125 6.0390625 6.125 9.625 C6.10695312 10.81351563 6.08890625 12.00203125 6.0703125 13.2265625 C6.04710937 14.14179688 6.02390625 15.05703125 6 16 C2.15625 14.2578125 2.15625 14.2578125 0.75 11.9375 C-0.2734742 7.92889271 -0.16131784 4.1136049 0 0 Z " fill="#2073B4" transform="translate(239,239)"/>
<path d="M0 0 C0 0.66 0 1.32 0 2 C-2.10260341 3.14878332 -4.20696539 4.29411192 -6.3125 5.4375 C-6.90740234 5.76298828 -7.50230469 6.08847656 -8.11523438 6.42382812 C-10.72373626 7.83737384 -13.17845899 9.05948633 -16 10 C-16 8.02 -16 6.04 -16 4 C-5.62642369 -1.92482916 -5.62642369 -1.92482916 0 0 Z " fill="#D19B51" transform="translate(228,140)"/>
<path d="M0 0 C3.36165806 1.41043479 5.09505232 3.01526034 7.25 5.9375 C8.03117187 6.97197266 8.03117187 6.97197266 8.828125 8.02734375 C10 10 10 10 10 13 C7.69 13 5.38 13 3 13 C0.33409063 8.44573816 -0.31563182 5.26053037 0 0 Z " fill="#030E1D" transform="translate(268,327)"/>
<path d="M0 0 C0.99 0 1.98 0 3 0 C3 7.30077008 -0.99878447 12.87464082 -6 18 C-8.765625 18.8203125 -8.765625 18.8203125 -11 19 C-9.68804217 16.11243732 -8.24517975 14.0382037 -6.0625 11.75 C-2.82181313 8.09729426 -1.46309367 4.63312994 0 0 Z " fill="#A27E4B" transform="translate(204,220)"/>
<path d="M0 0 C4.07462309 1.48812322 5.28659555 3.73185004 7.25 7.5 C7.77078125 8.4796875 8.2915625 9.459375 8.828125 10.46875 C10 13 10 13 10 15 C5.6736394 14.26639973 3.91033921 12.28315034 1.1953125 8.98828125 C-0.61230548 5.98149186 -0.41652317 3.40160588 0 0 Z " fill="#288ED5" transform="translate(249,236)"/>
<path d="M0 0 C3.32957907 0.27746492 4.78804723 0.81096104 7.3125 3.0625 C9.58644396 7.0208469 9.30595085 9.48722494 9 14 C8.01 14 7.02 14 6 14 C5.18247697 12.41925436 4.37118003 10.83528777 3.5625 9.25 C3.11003906 8.36828125 2.65757812 7.4865625 2.19140625 6.578125 C1.16544602 4.35801434 0.48491397 2.38555381 0 0 Z " fill="#165898" transform="translate(308,231)"/>
<path d="M0 0 C0 1.32 0 2.64 0 4 C-0.82757813 3.76216797 -0.82757813 3.76216797 -1.671875 3.51953125 C-8.75460204 1.93898981 -15.12122244 2.32820352 -21.34375 6.125 C-23 7 -23 7 -26 7 C-25 4 -25 4 -23.2421875 2.83203125 C-15.38979029 -0.54994181 -8.41797072 -0.40406259 0 0 Z " fill="#B1834B" transform="translate(247,124)"/>
<path d="M0 0 C3.35066172 1.385988 4.83371851 2.7756177 6.6875 5.875 C7.10386719 6.55304688 7.52023437 7.23109375 7.94921875 7.9296875 C8.97769469 9.95605274 9.54720627 11.78081315 10 14 C2.6986755 10.59271523 2.6986755 10.59271523 1 8 C0.45757246 5.31976978 0.22427391 2.73614169 0 0 Z " fill="#279AE4" transform="translate(286,239)"/>
<path d="M0 0 C2.80705084 0.08020145 4.48206883 0.45547237 6.4453125 2.51953125 C10 7.34375 10 7.34375 10 11 C6.10994871 10.77771136 5.01244362 10.01244362 2.1875 7.1875 C0 4 0 4 0 0 Z " fill="#134C85" transform="translate(293,199)"/>
<path d="M0 0 C2.78524476 0.07957842 4.47403788 0.45982269 6.4453125 2.484375 C9.09822756 6.03170143 10 7.3766801 10 12 C6.17598678 10.49770909 4.4791017 8.1988409 2 5 C1.01 4.34 0.02 3.68 -1 3 C-0.67 2.01 -0.34 1.02 0 0 Z " fill="#154F8A" transform="translate(303,214)"/>
<path d="M0 0 C0.99 0.99 1.98 1.98 3 3 C2.071875 4.5778125 2.071875 4.5778125 1.125 6.1875 C-0.51579108 9.05015677 -1.86984453 11.89207246 -3 15 C-4.32 14.67 -5.64 14.34 -7 14 C-7 10 -7 10 -5.75 8.6875 C-4.88375 7.8521875 -4.88375 7.8521875 -4 7 C-2.56937361 4.71304885 -1.29584324 2.36826523 0 0 Z " fill="#5A4936" transform="translate(221,300)"/>
<path d="M0 0 C-1.76318447 4.48810593 -4.70278489 6.99843126 -9.10546875 8.91796875 C-11.05532086 9.65304574 -13.02649526 10.33101534 -15 11 C-15 8.75 -15 8.75 -14 6 C-11.48773604 4.30407811 -8.78218959 3.18204344 -6 2 C-5.29488281 1.63261719 -4.58976563 1.26523438 -3.86328125 0.88671875 C-2 0 -2 0 0 0 Z " fill="#95754A" transform="translate(258,183)"/>
<path d="M0 0 C2.58148508 0.35606691 3.82045747 0.83328193 5.75 2.625 C7.43754802 5.83134123 7.20576047 8.43348514 7 12 C3.16674584 10.54600704 1.71720395 8.6919885 0 5 C-0.1875 2.1875 -0.1875 2.1875 0 0 Z " fill="#1B68A9" transform="translate(302,236)"/>
<path d="M0 0 C1.8125 0.125 1.8125 0.125 4 1 C6.28905989 4.67884625 7 6.61551956 7 11 C3.94042532 10.67218843 2.94163866 9.94321599 0.6875 7.75 C-1 5 -1 5 -0.75 2.1875 C-0.5025 1.465625 -0.255 0.74375 0 0 Z " fill="#227CC0" transform="translate(251,222)"/>
<path d="M0 0 C4.42116304 1.35091093 6.48076658 3.13117725 9 7 C9.75 9.8125 9.75 9.8125 10 12 C4.97050156 10.56300045 2.92172415 8.17389165 0 4 C0 2.68 0 1.36 0 0 Z " fill="#144B84" transform="translate(277,298)"/>
<path d="M0 0 C5.875 0.875 5.875 0.875 7 2 C7.47058824 7.41176471 7.47058824 7.41176471 5.5 9.875 C4.7575 10.431875 4.7575 10.431875 4 11 C0 4.5 0 4.5 0 0 Z " fill="#165492" transform="translate(316,249)"/>
<path d="M0 0 C0.99 0 1.98 0 3 0 C3 5.28 3 10.56 3 16 C2.01 16 1.02 16 0 16 C-0.19389096 13.5211787 -0.38040123 11.04219069 -0.5625 8.5625 C-0.61857422 7.85544922 -0.67464844 7.14839844 -0.73242188 6.41992188 C-0.86190993 4.61572163 -0.93521608 2.80768048 -1 1 C-0.67 0.67 -0.34 0.34 0 0 Z " fill="#2C2928" transform="translate(194,290)"/>
<path d="M0 0 C0.99 0 1.98 0 3 0 C3.50471197 1.76949612 4.00360685 3.54065223 4.5 5.3125 C4.7784375 6.29863281 5.056875 7.28476562 5.34375 8.30078125 C6 11 6 11 6 14 C3.71216703 13.08486681 2.26550272 12.34515354 0.75 10.375 C-0.35953628 6.86146845 -0.12256679 3.67700382 0 0 Z " fill="#288FD6" transform="translate(249,253)"/>
<path d="M0 0 C2.52940738 3.13164723 4.44920018 6.27808042 6 10 C5.6875 12.375 5.6875 12.375 5 14 C1.54409793 12.84803264 1.28993486 12.34998307 -0.3125 9.25 C-1.78185745 6.16712173 -2.10604952 5.42419808 -1.25 2 C-0.8375 1.34 -0.425 0.68 0 0 Z " fill="#79603F" transform="translate(347,164)"/>
<path d="M0 0 C-0.6796875 1.921875 -0.6796875 1.921875 -2 4 C-4.3828125 4.828125 -4.3828125 4.828125 -7.125 5.25 C-8.03507813 5.39953125 -8.94515625 5.5490625 -9.8828125 5.703125 C-10.58148438 5.80109375 -11.28015625 5.8990625 -12 6 C-12 5.01 -12 4.02 -12 3 C-12.99 2.67 -13.98 2.34 -15 2 C-9.92523206 0.73694665 -5.27203646 -0.27036084 0 0 Z " fill="#A98148" transform="translate(257,130)"/>
<path d="M0 0 C0.99 0 1.98 0 3 0 C2.66290194 6.51722911 1.55774263 9.32539218 -3 14 C-3.66 13.67 -4.32 13.34 -5 13 C-3.35 8.71 -1.7 4.42 0 0 Z " fill="#AE864E" transform="translate(195,214)"/>
<path d="M0 0 C0.99 0.33 1.98 0.66 3 1 C3 1.66 3 2.32 3 3 C3.99 3.33 4.98 3.66 6 4 C5.67 5.32 5.34 6.64 5 8 C3.02 8.33 1.04 8.66 -1 9 C-1.80967438 6.08517222 -2.21845993 4.53886783 -1.0625 1.6875 C-0.711875 1.130625 -0.36125 0.57375 0 0 Z " fill="#0E4683" transform="translate(247,174)"/>
<path d="M0 0 C0.66 0 1.32 0 2 0 C2.83848804 1.45537568 3.67063934 2.91440373 4.5 4.375 C5.19609375 5.59316406 5.19609375 5.59316406 5.90625 6.8359375 C7 9 7 9 7 11 C3.98197607 10.67372714 2.40308719 10.38918764 0.1875 8.25 C-1.20765469 5.60654901 -1.31885108 3.94937245 -1 1 C-0.67 0.67 -0.34 0.34 0 0 Z " fill="#18548F" transform="translate(268,211)"/>
<path d="M0 0 C0 3.61759584 -0.98217502 4.95698951 -2.875 8 C-3.40867188 8.86625 -3.94234375 9.7325 -4.4921875 10.625 C-7.87994643 15.96115914 -7.87994643 15.96115914 -10.125 16.6875 C-10.74375 16.790625 -11.3625 16.89375 -12 17 C-10.60827683 12.9625531 -8.70711315 10.10184153 -6 6.8125 C-5.29875 5.95269531 -4.5975 5.09289062 -3.875 4.20703125 C-2 2 -2 2 0 0 Z " fill="#D9A155" transform="translate(208,121)"/>
<path d="M0 0 C0 2.31 0 4.62 0 7 C-4.75 6.25 -4.75 6.25 -7 4 C-7 2.68 -7 1.36 -7 0 C-4.3333581 -1.33332095 -2.83319697 -0.67102033 0 0 Z " fill="#0D4279" transform="translate(243,182)"/>
<path d="M0 0 C1.875 0.1875 1.875 0.1875 4 1 C5.52164099 3.89111788 6 5.71823412 6 9 C3.625 8.6875 3.625 8.6875 1 8 C-1 5 -1 5 -0.625 2.3125 C-0.41875 1.549375 -0.2125 0.78625 0 0 Z " fill="#1E63A2" transform="translate(240,224)"/>
<path d="M0 0 C2.125 0.375 2.125 0.375 4 1 C4.625 3.375 4.625 3.375 5 6 C4.34 6.66 3.68 7.32 3 8 C0.875 7.625 0.875 7.625 -1 7 C-1.625 4.625 -1.625 4.625 -2 2 C-1.34 1.34 -0.68 0.68 0 0 Z " fill="#EEEFF0" transform="translate(281,387)"/>
<path d="M0 0 C1.98 0.66 3.96 1.32 6 2 C6 4.97 6 7.94 6 11 C5.01 10.67 4.02 10.34 3 10 C1.25327015 6.5065403 0 3.93154432 0 0 Z " fill="#298DD4" transform="translate(275,228)"/>
<path d="M0 0 C0.99 0.33 1.98 0.66 3 1 C2.67 2.32 2.34 3.64 2 5 C1.07767578 5.14695312 1.07767578 5.14695312 0.13671875 5.296875 C-4.96900778 6.09729068 -4.96900778 6.09729068 -8.9375 9.125 C-9.288125 9.74375 -9.63875 10.3625 -10 11 C-10.66 11 -11.32 11 -12 11 C-10.11864841 6.61017963 -7.72312267 3.76137979 -3.3125 1.8125 C-2.549375 1.544375 -1.78625 1.27625 -1 1 C-0.67 0.67 -0.34 0.34 0 0 Z " fill="#B0854B" transform="translate(222,118)"/>
<path d="M0 0 C1.32 0.33 2.64 0.66 4 1 C3.60082968 2.44245638 3.17985483 3.87888841 2.75 5.3125 C2.40195313 6.51326172 2.40195313 6.51326172 2.046875 7.73828125 C1 10 1 10 -3 13 C-2.01 8.71 -1.02 4.42 0 0 Z " fill="#A98450" transform="translate(213,223)"/>
<path d="M0 0 C2.31 0 4.62 0 7 0 C7 0.66 7 1.32 7 2 C7.66 2 8.32 2 9 2 C8.67 2.99 8.34 3.98 8 5 C5.36 5 2.72 5 0 5 C0 3.35 0 1.7 0 0 Z " fill="#104884" transform="translate(250,167)"/>
<path d="M0 0 C2.125 0.375 2.125 0.375 4 1 C4.33 2.32 4.66 3.64 5 5 C4.01 5.33 3.02 5.66 2 6 C1.67 6.66 1.34 7.32 1 8 C0.34 8 -0.32 8 -1 8 C-1.625 5.125 -1.625 5.125 -2 2 C-1.34 1.34 -0.68 0.68 0 0 Z " fill="#4A3D2F" transform="translate(173,204)"/>
<path d="M0 0 C1.98 0 3.96 0 6 0 C6.38218767 1.65614657 6.71395102 3.32457024 7 5 C6 6 6 6 3.5 6.125 C1 6 1 6 0 5 C-0.04063832 3.33382885 -0.042721 1.66611905 0 0 Z " fill="#38312A" transform="translate(167,172)"/>
<path d="M0 0 C1.2065625 0.0309375 1.2065625 0.0309375 2.4375 0.0625 C2.81968767 1.71864657 3.15145102 3.38707024 3.4375 5.0625 C2.4375 6.0625 2.4375 6.0625 -0.125 6.125 C-1.3315625 6.0940625 -1.3315625 6.0940625 -2.5625 6.0625 C-2.94468767 4.40635343 -3.27645102 2.73792976 -3.5625 1.0625 C-2.5625 0.0625 -2.5625 0.0625 0 0 Z " fill="#3B342C" transform="translate(343.5625,235.9375)"/>
<path d="M0 0 C6.75 0.875 6.75 0.875 9 2 C8.67 2.99 8.34 3.98 8 5 C5.36 5 2.72 5 0 5 C0 3.35 0 1.7 0 0 Z " fill="#0F4D8D" transform="translate(251,158)"/>
<path d="M0 0 C1.5 1.0625 1.5 1.0625 3 3 C3.1875 6.6875 3.1875 6.6875 3 10 C1.35 10.33 -0.3 10.66 -2 11 C-1 3.57142857 -1 3.57142857 0 0 Z " fill="#826845" transform="translate(186,255)"/>
<path d="M0 0 C4.22797927 3.08290155 4.22797927 3.08290155 6 5 C6.375 7.8125 6.375 7.8125 6 10 C4.125 9.75 4.125 9.75 2 9 C-0.11103658 6.04454879 -0.19785783 3.56144099 0 0 Z " fill="#175896" transform="translate(288,205)"/>
<path d="M0 0 C1.66611905 -0.042721 3.33382885 -0.04063832 5 0 C6 1 6 1 6.0625 4.0625 C6.041875 5.031875 6.02125 6.00125 6 7 C3.03 6.505 3.03 6.505 0 6 C0 4.02 0 2.04 0 0 Z " fill="#D49B51" transform="translate(331,145)"/>
<path d="M0 0 C0.66 0.33 1.32 0.66 2 1 C0.42516194 4.32465814 -0.5054769 5.76348895 -3.875 7.375 C-7.03310056 8.00662011 -8.9399165 7.90002456 -12 7 C-9.5129261 5.34195074 -7.02682498 3.80125522 -4.4375 2.3125 C-3.65246094 1.85488281 -2.86742187 1.39726562 -2.05859375 0.92578125 C-1.37925781 0.62027344 -0.69992187 0.31476563 0 0 Z " fill="#967344" transform="translate(284,138)"/>
<path d="M0 0 C1.67542976 0.28604898 3.34385343 0.61781233 5 1 C5 2.98 5 4.96 5 7 C3.35 7 1.7 7 0 7 C-0.38133299 5.0085944 -0.71325582 3.00720923 -1 1 C-0.67 0.67 -0.34 0.34 0 0 Z " fill="#FAFAFA" transform="translate(216,402)"/>
<path d="M0 0 C0 0.99 0 1.98 0 3 C-1.98 3.66 -3.96 4.32 -6 5 C-6 4.34 -6 3.68 -6 3 C-7.32 2.34 -8.64 1.68 -10 1 C-6.21812119 -0.83691257 -4.05431692 -1.15837626 0 0 Z " fill="#C4924F" transform="translate(234,137)"/>
<path d="M0 0 C1.2065625 0.0309375 1.2065625 0.0309375 2.4375 0.0625 C2.4375 2.0425 2.4375 4.0225 2.4375 6.0625 C0.7875 6.0625 -0.8625 6.0625 -2.5625 6.0625 C-2.94468767 4.40635343 -3.27645102 2.73792976 -3.5625 1.0625 C-2.5625 0.0625 -2.5625 0.0625 0 0 Z " fill="#282726" transform="translate(327.5625,204.9375)"/>
<path d="M0 0 C0.66 0 1.32 0 2 0 C2 2.64 2 5.28 2 8 C0.35 7.67 -1.3 7.34 -3 7 C-2.25 2.25 -2.25 2.25 0 0 Z " fill="#F8F8F8" transform="translate(176,403)"/>
<path d="M0 0 C0.99 0 1.98 0 3 0 C3 2.64 3 5.28 3 8 C1.68 7.67 0.36 7.34 -1 7 C-1.625 5.1875 -1.625 5.1875 -2 3 C-1.34 2.01 -0.68 1.02 0 0 Z " fill="#124681" transform="translate(319,227)"/>
<path d="M0 0 C0.99 0 1.98 0 3 0 C2.25 6.625 2.25 6.625 0 10 C-0.66 10 -1.32 10 -2 10 C-1.125 2.25 -1.125 2.25 0 0 Z " fill="#CE9A54" transform="translate(204,220)"/>
<path d="M0 0 C4.875 4.75 4.875 4.75 6 7 C5.01 7 4.02 7 3 7 C3 8.65 3 10.3 3 12 C1.09598862 10.09598862 0.06479561 8.66574314 -0.19921875 5.953125 C-0.1886578 3.96766727 -0.09915043 1.9830086 0 0 Z " fill="#2170B0" transform="translate(260,215)"/>
<path d="M0 0 C3.875 1.875 3.875 1.875 5 3 C5.04063832 4.66617115 5.042721 6.33388095 5 8 C3.35 7.67 1.7 7.34 0 7 C0 4.69 0 2.38 0 0 Z " fill="#165691" transform="translate(288,217)"/>
<path d="M0 0 C3.875 1.875 3.875 1.875 5 3 C5.04080783 4.99958364 5.04254356 7.00045254 5 9 C1.125 7.125 1.125 7.125 0 6 C-0.04080783 4.00041636 -0.04254356 1.99954746 0 0 Z " fill="#195995" transform="translate(279,205)"/>
<path d="M0 0 C2.5625 2.25 2.5625 2.25 5 5 C4.8125 7.3125 4.8125 7.3125 4 9 C3.34 9 2.68 9 2 9 C0.7109375 7.46875 0.7109375 7.46875 -0.625 5.5 C-1.07101562 4.8503125 -1.51703125 4.200625 -1.9765625 3.53125 C-2.31429688 3.0259375 -2.65203125 2.520625 -3 2 C-2.01 1.34 -1.02 0.68 0 0 Z " fill="#A37B4B" transform="translate(337,150)"/>
<path d="M0 0 C0.78375 0.04125 1.5675 0.0825 2.375 0.125 C1.00516497 3.28615776 0.3859362 4.1177092 -2.625 6.125 C-3.945 6.125 -5.265 6.125 -6.625 6.125 C-3.85227273 0.18344156 -3.85227273 0.18344156 0 0 Z " fill="#0F4884" transform="translate(256.625,148.875)"/>
<path d="M0 0 C-0.33 1.98 -0.66 3.96 -1 6 C-2.65 6 -4.3 6 -6 6 C-6.33 4.68 -6.66 3.36 -7 2 C-4 0 -4 0 0 0 Z " fill="#10437D" transform="translate(250,144)"/>
<path d="M0 0 C1.485 0.99 1.485 0.99 3 2 C3.40564287 6.94884301 3.25552839 10.48894322 1 15 C0.67 15 0.34 15 0 15 C0 10.05 0 5.1 0 0 Z " fill="#0A2751" transform="translate(330,309)"/>
<path d="M0 0 C1.65 0.33 3.3 0.66 5 1 C4.67 2.65 4.34 4.3 4 6 C2.35 5.67 0.7 5.34 -1 5 C-0.67 3.35 -0.34 1.7 0 0 Z " fill="#232324" transform="translate(186,305)"/>
<path d="M0 0 C0.67578125 1.73828125 0.67578125 1.73828125 1 4 C-0.14453125 6.10546875 -0.14453125 6.10546875 -1.8125 8.1875 C-2.35519531 8.88230469 -2.89789063 9.57710937 -3.45703125 10.29296875 C-5 12 -5 12 -7 13 C-5.74875245 7.31251115 -3.95897432 4.27152492 0 0 Z " fill="#9C7A4A" transform="translate(210,232)"/>
<path d="M0 0 C0.66 0 1.32 0 2 0 C1.67 4.62 1.34 9.24 1 14 C0.34 13.67 -0.32 13.34 -1 13 C-1.02686553 11.02090602 -1.04633375 9.04171029 -1.0625 7.0625 C-1.07410156 5.96035156 -1.08570313 4.85820312 -1.09765625 3.72265625 C-1 1 -1 1 0 0 Z " fill="#332D27" transform="translate(355,206)"/>
<path d="M0 0 C0.33 0 0.66 0 1 0 C1.33452052 7.43378943 1.13902852 13.19877155 -2 20 C-2.66 19.67 -3.32 19.34 -4 19 C-3.67 17.02 -3.34 15.04 -3 13 C-2.34 13 -1.68 13 -1 13 C-0.67 8.71 -0.34 4.42 0 0 Z " fill="#24303C" transform="translate(262,156)"/>
<path d="M0 0 C4.82360189 -0.19294408 8.49646738 0.24252386 13 2 C13 2.66 13 3.32 13 4 C8.62065881 3.48041715 4.31196609 2.94324258 0 2 C0 1.34 0 0.68 0 0 Z " fill="#C99550" transform="translate(262,122)"/>
<path d="M0 0 C8.35010941 1.33041575 8.35010941 1.33041575 11.0625 4.125 C11.371875 4.74375 11.68125 5.3625 12 6 C11.319375 5.67 10.63875 5.34 9.9375 5 C6.49159762 3.82692685 3.61602578 3.85819507 0 4 C0 2.68 0 1.36 0 0 Z " fill="#AE824E" transform="translate(246,117)"/>
<path d="M0 0 C1.98 0 3.96 0 6 0 C5.67 1.65 5.34 3.3 5 5 C3.35 4.67 1.7 4.34 0 4 C0 2.68 0 1.36 0 0 Z " fill="#896A44" transform="translate(157,285)"/>
<path d="M0 0 C0.66 0.99 1.32 1.98 2 3 C3.32381517 4.67423683 4.65576661 6.34211215 6 8 C4.35 8 2.7 8 1 8 C0.67 8.66 0.34 9.32 0 10 C-0.66 7.03 -1.32 4.06 -2 1 C-1.34 0.67 -0.68 0.34 0 0 Z " fill="#06152B" transform="translate(239,248)"/>
<path d="M0 0 C0 1.98 0 3.96 0 6 C-1.32 6.33 -2.64 6.66 -4 7 C-4.33 5.35 -4.66 3.7 -5 2 C-1.125 0 -1.125 0 0 0 Z " fill="#6B553C" transform="translate(219,308)"/>
<path d="M0 0 C4.75 0.875 4.75 0.875 7 2 C7.625 5.0625 7.625 5.0625 8 8 C3.79373966 6.49776416 2.26099979 3.71449966 0 0 Z " fill="#15375B" transform="translate(216,178)"/>
<path d="M0 0 C0.99 0.33 1.98 0.66 3 1 C2.01 3.97 1.02 6.94 0 10 C-0.99 10 -1.98 10 -3 10 C-2.01 6.7 -1.02 3.4 0 0 Z " fill="#DFE0E2" transform="translate(366,401)"/>
<path d="M0 0 C1.9451 2.91765 2.45276317 4.62537285 3 8 C2.01 8.495 2.01 8.495 1 9 C-0.95216435 7.04783565 -1.84826645 5.46800047 -3 3 C-2.01 2.01 -1.02 1.02 0 0 Z " fill="#705A3C" transform="translate(146,257)"/>
<path d="M0 0 C4.455 0.99 4.455 0.99 9 2 C8.34 2.66 7.68 3.32 7 4 C4.8359375 3.9765625 4.8359375 3.9765625 2.375 3.625 C1.55773437 3.51414062 0.74046875 3.40328125 -0.1015625 3.2890625 C-0.72804688 3.19367188 -1.35453125 3.09828125 -2 3 C-1.34 2.67 -0.68 2.34 0 2 C0 1.34 0 0.68 0 0 Z " fill="#BD8F4E" transform="translate(275,124)"/>
<path d="M0 0 C0.99 0.33 1.98 0.66 3 1 C2.75 2.875 2.75 2.875 2 5 C-0.0625 6.25 -0.0625 6.25 -2 7 C-2 5.02 -2 3.04 -2 1 C-1.34 0.67 -0.68 0.34 0 0 Z " fill="#DEA254" transform="translate(214,143)"/>
<path d="M0 0 C0.99 0.495 0.99 0.495 2 1 C2 1.66 2 2.32 2 3 C4.97 3.495 4.97 3.495 8 4 C7.34 5.32 6.68 6.64 6 8 C4.02 7.01 2.04 6.02 0 5 C0 3.35 0 1.7 0 0 Z " fill="#061327" transform="translate(280,305)"/>
<path d="M0 0 C2 2 2 2 2.125 5.625 C2.08375 6.73875 2.0425 7.8525 2 9 C-1.875 7.25 -1.875 7.25 -3 5 C-2.34 5 -1.68 5 -1 5 C-0.67 3.35 -0.34 1.7 0 0 Z " fill="#195790" transform="translate(307,239)"/>
<path d="M0 0 C2.64 0.33 5.28 0.66 8 1 C8 1.99 8 2.98 8 4 C5.69 3.67 3.38 3.34 1 3 C0.67 2.01 0.34 1.02 0 0 Z " fill="#217BBF" transform="translate(263,226)"/>
<path d="M0 0 C3.96 0 7.92 0 12 0 C12 1.32 12 2.64 12 4 C8.125 3.125 8.125 3.125 7 2 C4.67182036 1.63239269 2.3381615 1.29758419 0 1 C0 0.67 0 0.34 0 0 Z " fill="#D49B52" transform="translate(235,124)"/>
<path d="M0 0 C1.32 0 2.64 0 4 0 C4 1.65 4 3.3 4 5 C2.35 4.67 0.7 4.34 -1 4 C-0.67 2.68 -0.34 1.36 0 0 Z " fill="#262628" transform="translate(209,211)"/>
<path d="M0 0 C2.64 0 5.28 0 8 0 C7.01 0.495 7.01 0.495 6 1 C6 1.66 6 2.32 6 3 C3.69 3.33 1.38 3.66 -1 4 C-0.67 2.68 -0.34 1.36 0 0 Z " fill="#CCCED1" transform="translate(254,389)"/>
<path d="M0 0 C2.09749995 2.35968744 2.96905704 3.54616994 3.1875 6.75 C3.125625 7.4925 3.06375 8.235 3 9 C1.68 8.34 0.36 7.68 -1 7 C-0.67 4.69 -0.34 2.38 0 0 Z " fill="#2888C9" transform="translate(271,251)"/>
<path d="M0 0 C2 1.1875 2 1.1875 4 3 C4.25 5.6875 4.25 5.6875 4 8 C3.01 7.67 2.02 7.34 1 7 C0.67 4.69 0.34 2.38 0 0 Z " fill="#16528E" transform="translate(299,219)"/>
<path d="M0 0 C2.475 0.495 2.475 0.495 5 1 C4.1875 2.9375 4.1875 2.9375 3 5 C2.01 5.33 1.02 5.66 0 6 C0 4.02 0 2.04 0 0 Z " fill="#113B6B" transform="translate(226,182)"/>
<path d="M0 0 C0.99 0.33 1.98 0.66 3 1 C3 1.66 3 2.32 3 3 C3.99 3.33 4.98 3.66 6 4 C5.67 5.32 5.34 6.64 5 8 C3.5 6.625 3.5 6.625 2 5 C2 4.34 2 3.68 2 3 C1.34 3 0.68 3 0 3 C0 2.01 0 1.02 0 0 Z " fill="#0E3F73" transform="translate(247,174)"/>
<path d="M0 0 C0.66 0.66 1.32 1.32 2 2 C3.65 1.34 5.3 0.68 7 0 C7 1.98 7 3.96 7 6 C6.67 5.01 6.34 4.02 6 3 C5.38125 3.350625 4.7625 3.70125 4.125 4.0625 C3.42375 4.371875 2.7225 4.68125 2 5 C1.34 4.67 0.68 4.34 0 4 C0 2.68 0 1.36 0 0 Z " fill="#C7C9CC" transform="translate(209,402)"/>
<path d="M0 0 C0.99 1.485 0.99 1.485 2 3 C2.99 2.01 3.98 1.02 5 0 C6.32 0.66 7.64 1.32 9 2 C6.33333333 3.33333333 3.66666667 4.66666667 1 6 C0 5 0 5 -0.0625 2.4375 C-0.041875 1.633125 -0.02125 0.82875 0 0 Z " fill="#DFE1E3" transform="translate(129,402)"/>
<path d="M0 0 C4.67692308 1.47692308 4.67692308 1.47692308 6.3125 4.125 C6.539375 4.74375 6.76625 5.3625 7 6 C4.625 5.8125 4.625 5.8125 2 5 C0.6875 2.4375 0.6875 2.4375 0 0 Z " fill="#071528" transform="translate(297,325)"/>
<path d="M0 0 C0.99 0 1.98 0 3 0 C2.25 6.75 2.25 6.75 0 9 C0 6.03 0 3.06 0 0 Z " fill="#A07A4B" transform="translate(209,245)"/>
<path d="M0 0 C0.66 0 1.32 0 2 0 C1.8125 1.8125 1.8125 1.8125 1 4 C-1.5625 5.75 -1.5625 5.75 -4 7 C-2.92598892 4.08482708 -2.22189824 2.22189824 0 0 Z " fill="#DCDDDF" transform="translate(335,423)"/>
<path d="M0 0 C1.32 0 2.64 0 4 0 C3.25 2.4375 3.25 2.4375 2 5 C-0.125 5.8125 -0.125 5.8125 -2 6 C-1.49396008 3.83125748 -1.00016187 2.00032373 0 0 Z " fill="#957447" transform="translate(192,238)"/>
<path d="M0 0 C1 3 1 3 0.1875 5.125 C-1 7 -1 7 -3 8 C-3.33 7.01 -3.66 6.02 -4 5 C-2.0625 2.3125 -2.0625 2.3125 0 0 Z " fill="#95774D" transform="translate(190,225)"/>
<path d="M0 0 C1.32 0.33 2.64 0.66 4 1 C3.34 2.98 2.68 4.96 2 7 C1.34 6.67 0.68 6.34 0 6 C0 4.02 0 2.04 0 0 Z " fill="#BA9055" transform="translate(213,223)"/>
<path d="M0 0 C0 4.24645065 -1.81750806 6.38524772 -4 10 C-4.66 9.01 -5.32 8.02 -6 7 C-4.02 4.69 -2.04 2.38 0 0 Z " fill="#AE854A" transform="translate(208,121)"/>
<path d="M0 0 C1.98 0.99 1.98 0.99 4 2 C3.01 2.495 3.01 2.495 2 3 C2 4.32 2 5.64 2 7 C2.66 7.33 3.32 7.66 4 8 C3.01 8 2.02 8 1 8 C0.67 5.36 0.34 2.72 0 0 Z " fill="#2D87CC" transform="translate(286,239)"/>
<path d="M0 0 C1.485 0.99 1.485 0.99 3 2 C3.1875 5.125 3.1875 5.125 3 8 C2.34 8 1.68 8 1 8 C-0.42944945 5.64561267 -1.08661261 4.51967567 -0.625 1.75 C-0.41875 1.1725 -0.2125 0.595 0 0 Z " fill="#1E66A0" transform="translate(292,231)"/>
<path d="M0 0 C0 0.66 0 1.32 0 2 C1.65 2 3.3 2 5 2 C5 2.33 5 2.66 5 3 C-1.4 4.35384615 -1.4 4.35384615 -4.4375 2.5625 C-4.953125 2.046875 -5.46875 1.53125 -6 1 C-3.92446352 0.4465236 -2.15634036 0 0 0 Z " fill="#A87F49" transform="translate(286,123)"/>
<path d="M0 0 C2.62187494 1.04874998 3.79371361 1.64931313 5.25 4.125 C5.4975 4.74375 5.745 5.3625 6 6 C4.125 5.8125 4.125 5.8125 2 5 C0.75 2.4375 0.75 2.4375 0 0 Z " fill="#091627" transform="translate(253,310)"/>
<path d="M0 0 C0.33 0 0.66 0 1 0 C1 3.3 1 6.6 1 10 C-0.32 9.67 -1.64 9.34 -3 9 C-3.33 8.34 -3.66 7.68 -4 7 C-3.01 7 -2.02 7 -1 7 C-0.67 4.69 -0.34 2.38 0 0 Z " fill="#14487E" transform="translate(318,275)"/>
<path d="M0 0 C0.99 1.32 1.98 2.64 3 4 C2.67 4.66 2.34 5.32 2 6 C0.02 4.68 -1.96 3.36 -4 2 C-2.68 1.34 -1.36 0.68 0 0 Z " fill="#2A83BF" transform="translate(293,247)"/>
<path d="M0 0 C0.33 0 0.66 0 1 0 C1 2.64 1 5.28 1 8 C0.01 8 -0.98 8 -2 8 C-2.33 6.68 -2.66 5.36 -3 4 C-2.01 4 -1.02 4 0 4 C0 2.68 0 1.36 0 0 Z " fill="#134272" transform="translate(316,237)"/>
<path d="M0 0 C1.65 0 3.3 0 5 0 C4.67 1.32 4.34 2.64 4 4 C2.68 3.67 1.36 3.34 0 3 C0 2.01 0 1.02 0 0 Z " fill="#332E29" transform="translate(335,194)"/>
<path d="M0 0 C1.65 0.33 3.3 0.66 5 1 C3.60804085 3.7839183 1.84424221 3.97898997 -1 5 C-0.67 3.35 -0.34 1.7 0 0 Z " fill="#AF844D" transform="translate(244,189)"/>
<path d="M0 0 C-1.65 1.32 -3.3 2.64 -5 4 C-5.99 3.01 -6.98 2.02 -8 1 C-4.93251126 -0.86240388 -3.40254489 -1.2151946 0 0 Z " fill="#08203E" transform="translate(256,182)"/>
<path d="M0 0 C2.00948183 0.01778303 4.01668765 0.16786374 6.01953125 0.33203125 C6.01953125 0.66203125 6.01953125 0.99203125 6.01953125 1.33203125 C4.94703125 1.62078125 3.87453125 1.90953125 2.76953125 2.20703125 C-0.07447239 3.06023234 -2.41555858 3.89568155 -4.98046875 5.33203125 C-3.05235036 0.51173527 -3.05235036 0.51173527 0 0 Z " fill="#C79556" transform="translate(193.98046875,169.66796875)"/>
<path d="M0 0 C-1.8125 1.5625 -1.8125 1.5625 -4 3 C-4.99 2.67 -5.98 2.34 -7 2 C-7 1.34 -7 0.68 -7 0 C-3.86650268 -1.04449911 -3.01031744 -0.93423645 0 0 Z " fill="#D6D8DA" transform="translate(185,415)"/>
<path d="M0 0 C3 3.625 3 3.625 3 7 C0.525 6.01 0.525 6.01 -2 5 C-1.34 3.35 -0.68 1.7 0 0 Z " fill="#10406D" transform="translate(284,303)"/>
<path d="M0 0 C0.99 0.33 1.98 0.66 3 1 C2.67 2.98 2.34 4.96 2 7 C1.34 7 0.68 7 0 7 C0 4.69 0 2.38 0 0 Z " fill="#9B794B" transform="translate(200,249)"/>
<path d="M0 0 C2.475 0.495 2.475 0.495 5 1 C5 1.99 5 2.98 5 4 C3.35 3.67 1.7 3.34 0 3 C0 2.01 0 1.02 0 0 Z " fill="#1D6BAD" transform="translate(241,229)"/>
<path d="M0 0 C0.99 0 1.98 0 3 0 C3 1.65 3 3.3 3 5 C2.01 5.33 1.02 5.66 0 6 C0 4.02 0 2.04 0 0 Z " fill="#DAA057" transform="translate(195,214)"/>
<path d="M0 0 C-1.04874998 2.62187494 -1.64931313 3.79371361 -4.125 5.25 C-4.74375 5.4975 -5.3625 5.745 -6 6 C-3.84615385 0 -3.84615385 0 0 0 Z " fill="#A9814A" transform="translate(258,183)"/>
<path d="M0 0 C0.99 0.33 1.98 0.66 3 1 C2.67 2.32 2.34 3.64 2 5 C1.01 5 0.02 5 -1 5 C-0.67 3.35 -0.34 1.7 0 0 Z " fill="#D0F0F4" transform="translate(231,160)"/>
<path d="M0 0 C0.33 0.99 0.66 1.98 1 3 C-0.32 4.32 -1.64 5.64 -3 7 C-3.33 6.34 -3.66 5.68 -4 5 C-2.52830189 1.26415094 -2.52830189 1.26415094 0 0 Z " fill="#BD8D50" transform="translate(295,128)"/>
<path d="M0 0 C-0.33 1.32 -0.66 2.64 -1 4 C-3.31 3.34 -5.62 2.68 -8 2 C-4.91190305 0.23537317 -3.76687864 0 0 0 Z " fill="#A77E47" transform="translate(301,120)"/>
</svg>
